<?xml version="1.0" encoding="UTF-8"?>
<svg version="1.1" xmlns="http://www.w3.org/2000/svg" width="1120" height="1120">
<path d="M0 0 C369.6 0 739.2 0 1120 0 C1120 369.6 1120 739.2 1120 1120 C750.4 1120 380.8 1120 0 1120 C0 750.4 0 380.8 0 0 Z " fill="#D8D8D8" transform="translate(0,0)"/>
<path d="M0 0 C56.76 0 113.52 0 172 0 C172 40.92 172 81.84 172 124 C115.24 124 58.48 124 0 124 C0 83.08 0 42.16 0 0 Z " fill="#0C0C0C" transform="translate(474,458)"/>
<path d="M0 0 C0.88197689 -0.00482883 1.76395379 -0.00965766 2.67265725 -0.01463282 C5.6099797 -0.02584969 8.54642108 -0.00862591 11.48370361 0.00863647 C13.59659561 0.00648932 15.70948645 0.00260972 17.82237244 -0.00286865 C23.54730819 -0.01254531 29.27193111 0.00271884 34.99682903 0.02303743 C40.98872704 0.04062508 46.98061563 0.03708307 52.97253418 0.03631592 C63.02985867 0.03818756 73.08706228 0.05553622 83.14434814 0.08285522 C94.77786888 0.11433869 106.41125743 0.12485016 118.04481769 0.12338412 C129.23506936 0.12216433 140.42527793 0.13236598 151.61551666 0.14896774 C156.37939032 0.15603478 161.14324873 0.15969442 165.90712738 0.16075516 C171.51155258 0.16276128 177.11586643 0.17494836 182.7202549 0.19508743 C184.77942282 0.20093799 186.83860356 0.20338805 188.89777946 0.20223236 C191.70304955 0.20125355 194.50800596 0.21253638 197.31323242 0.22705078 C198.13267798 0.22395358 198.95212354 0.22085637 199.79640079 0.21766531 C203.63134637 0.2505542 206.65543048 0.31225365 209.90264893 2.49447632 C209.90264893 3.15447632 209.90264893 3.81447632 209.90264893 4.49447632 C210.60389893 4.65947632 211.30514893 4.82447632 212.02764893 4.99447632 C217.57952599 7.89110783 221.01173719 13.62952216 222.90264893 19.49447632 C223.08928467 22.34507943 223.17270701 25.0959659 223.15661621 27.94512939 C223.16129618 29.21819748 223.16129618 29.21819748 223.1660707 30.51698411 C223.17404516 33.3596499 223.16772913 36.20210191 223.16143799 39.04476929 C223.16414813 41.08338547 223.1677092 43.12200067 223.17205811 45.16061401 C223.1811827 50.69782581 223.17763722 56.23496315 223.17129993 61.77217627 C223.16623896 67.56650335 223.17093179 73.36082403 223.17407227 79.15515137 C223.1777122 88.88822576 223.17291269 98.62126981 223.16339111 108.3543396 C223.15251264 119.60430679 223.15602764 130.85420145 223.16704392 142.10416687 C223.17612329 151.76290217 223.1773987 161.42161566 223.17216659 171.08035386 C223.16904969 176.84906142 223.16862977 182.61773491 223.17523956 188.38644028 C223.18102159 193.81189106 223.17700033 199.23724849 223.16545105 204.66268921 C223.1628088 206.65287242 223.16356212 208.64306349 223.16797638 210.63324356 C223.17345055 213.35222006 223.16657486 216.07089839 223.15661621 218.78985596 C223.16107765 219.57537271 223.1655391 220.36088947 223.17013574 221.17020977 C223.10477898 230.38570547 220.19795079 236.45773153 214.40264893 243.55697632 C206.82501316 250.79315911 196.6937872 252.23459782 186.6675415 252.10971069 C185.50981735 252.1152597 184.3520932 252.12080872 183.1592865 252.12652588 C179.37148303 252.13823844 175.5848981 252.11413451 171.79718018 252.08822632 C169.14544484 252.08651323 166.49375606 252.08648027 163.84202576 252.08834839 C158.30194599 252.08829506 152.76221 252.06867779 147.222229 252.03646851 C140.83843672 251.99953127 134.45509305 251.990803 128.07120782 251.99776602 C121.89778519 252.00409244 115.72451456 251.99328085 109.55112267 251.97380066 C106.93773835 251.96678931 104.32434062 251.96364385 101.71094704 251.9644928 C98.0569099 251.96268831 94.40350079 251.94125111 90.74957275 251.91439819 C89.14325485 251.9187941 89.14325485 251.9187941 87.50448608 251.92327881 C78.57243349 251.82237897 71.00714385 250.17807226 63.90264893 244.49447632 C62.29488789 242.77243815 60.7782283 241.01000012 59.29718018 239.17807007 C57.93042972 237.46186465 57.93042972 237.46186465 56.30108643 235.96322632 C53.22048091 232.72773003 52.90264893 228.7837351 52.90264893 224.49447632 C57.19264893 224.49447632 61.48264893 224.49447632 65.90264893 224.49447632 C66.12952393 225.71135132 66.35639893 226.92822632 66.59014893 228.18197632 C67.69214156 232.50576687 69.27649503 234.75471559 72.90264893 237.49447632 C79.11080714 239.84821706 85.05008854 239.78411076 91.63360596 239.76913452 C93.37873474 239.77680092 93.37873474 239.77680092 95.15911865 239.78462219 C98.99295233 239.79848806 102.82660571 239.79756414 106.66046143 239.79525757 C108.65426508 239.79816226 110.6480688 239.80107183 112.64187133 239.80466431 C118.90313193 239.81573476 125.16433251 239.81620976 131.42559814 239.81015015 C137.87806453 239.80410155 144.33031334 239.81644929 150.78274262 239.83772022 C156.33282391 239.85534148 161.88283595 239.86133706 167.43294418 239.85808247 C170.74351385 239.85627147 174.05389351 239.86020494 177.36444473 239.87279701 C181.05329525 239.88511006 184.74163878 239.87840088 188.43048096 239.86679077 C190.07015335 239.87825638 190.07015335 239.87825638 191.74295044 239.88995361 C198.79275544 239.84455256 198.79275544 239.84455256 204.90264893 236.49447632 C205.56264893 236.49447632 206.22264893 236.49447632 206.90264893 236.49447632 C207.33577393 235.62822632 207.33577393 235.62822632 207.77764893 234.74447632 C208.90264893 232.49447632 208.90264893 232.49447632 209.95555687 230.78490829 C211.25213398 227.64928736 211.16602685 224.98890365 211.18112183 221.5975647 C211.18981043 220.55725762 211.18981043 220.55725762 211.19867456 219.49593425 C211.21567523 217.17280996 211.21855108 214.84988434 211.22149658 212.52670288 C211.23079472 210.86110446 211.24096322 209.1955107 211.25193787 207.52992249 C211.27926483 203.00758621 211.29439527 198.48528113 211.30736589 193.96288395 C211.32298463 189.23694844 211.34977885 184.51107675 211.37539673 179.78518677 C211.42220679 170.83572902 211.45894013 161.8862593 211.4920696 152.93674159 C211.53027524 142.74816965 211.57968949 132.55966178 211.63005376 122.37114382 C211.73340675 101.41230194 211.82265621 80.45341952 211.90264893 59.49447632 C210.1652125 59.50000708 210.1652125 59.50000708 208.39267635 59.50564957 C180.89078684 59.59230034 153.388911 59.65824805 125.88691315 59.69873764 C122.50112627 59.7037404 119.11533967 59.7089177 115.72955322 59.71420288 C115.05551046 59.71525212 114.38146769 59.71630136 113.68699939 59.7173824 C102.77618688 59.73478272 91.86545876 59.76631831 80.95469629 59.8030875 C69.75738107 59.84050736 58.56009471 59.86241501 47.36271626 59.8708303 C41.07407259 59.87604768 34.78562027 59.88832105 28.49703789 59.91739655 C22.57833026 59.94454027 16.65989288 59.95292328 10.74112892 59.94690704 C8.56871447 59.94800773 6.396291 59.9559676 4.22393036 59.97129822 C1.25704322 59.99120938 -1.70882459 59.98641096 -4.67573547 59.97549438 C-5.5346999 59.98714575 -6.39366432 59.99879712 -7.27865797 60.01080155 C-13.03444949 59.95358599 -16.35444608 58.79465796 -21.09735107 55.49447632 C-27.52955005 48.54074769 -27.43505789 42.8995908 -27.40985107 33.74447632 C-27.42596436 32.58947632 -27.44207764 31.43447632 -27.4586792 30.24447632 C-27.46350644 21.78714976 -26.73870596 14.83482056 -20.90985107 8.24447632 C-20.11514404 7.30861694 -20.11514404 7.30861694 -19.30438232 6.35385132 C-13.35235367 1.33939886 -7.64706479 -0.09705629 0 0 Z " fill="#0D0D0D" transform="translate(462.09735107421875,377.5055236816406)"/>
<path d="M0 0 C1.12209366 0.01131958 2.24418732 0.02263916 3.40028381 0.03430176 C6.96784566 0.07891978 10.53131908 0.17926531 14.09765625 0.28125 C16.52272823 0.32139537 18.94786349 0.35789427 21.37304688 0.390625 C27.30346724 0.47860691 33.23151968 0.61229959 39.16015625 0.78125 C38.65558883 2.95433654 38.17704986 4.74901029 37.13671875 6.734375 C36.02444327 9.0657044 35.76144489 10.96664543 35.53515625 13.53125 C35.46039063 14.33046875 35.385625 15.1296875 35.30859375 15.953125 C35.25960937 16.55640625 35.210625 17.1596875 35.16015625 17.78125 C36.15015625 17.78125 37.14015625 17.78125 38.16015625 17.78125 C38.65515625 18.77125 38.65515625 18.77125 39.16015625 19.78125 C43.50199827 19.59660634 43.50199827 19.59660634 47.16015625 17.78125 C47.20108562 15.44827567 47.20257348 13.11419775 47.16015625 10.78125 C47.82015625 10.45125 48.48015625 10.12125 49.16015625 9.78125 C49.54234392 8.12510343 49.87410727 6.45667976 50.16015625 4.78125 C50.49015625 4.12125 50.82015625 3.46125 51.16015625 2.78125 C49.84015625 2.12125 48.52015625 1.46125 47.16015625 0.78125 C97.98015625 0.78125 148.80015625 0.78125 201.16015625 0.78125 C201.16015625 1.44125 201.16015625 2.10125 201.16015625 2.78125 C201.92328125 3.02875 202.68640625 3.27625 203.47265625 3.53125 C206.55914326 4.96682535 207.47295464 5.85404215 209.16015625 8.78125 C209.50073242 11.89746094 209.50073242 11.89746094 209.453125 15.515625 C209.44345703 16.81113281 209.43378906 18.10664063 209.42382812 19.44140625 C209.39876408 20.80469354 209.37336927 22.16797479 209.34765625 23.53125 C209.33260143 24.91014184 209.31891442 26.28904935 209.30664062 27.66796875 C209.27127534 31.03945915 209.22191529 34.41015654 209.16015625 37.78125 C180.69200022 37.87246624 152.22386253 37.94327101 123.75558902 37.98551132 C120.39597838 37.99051425 117.03636802 37.99569153 113.67675781 38.00097656 C113.00790935 38.0020258 112.33906088 38.00307505 111.64994428 38.00415608 C100.81470318 38.02156958 89.97954683 38.05311243 79.14435604 38.08986118 C68.02954362 38.1272444 56.91476581 38.14918081 45.79989219 38.15760398 C39.55549792 38.16282769 33.31129595 38.17514101 27.0669632 38.20417023 C21.19340703 38.23125534 15.32012299 38.23970892 9.44651031 38.23368073 C7.28734866 38.23478405 5.12817821 38.24277875 2.96907043 38.2580719 C0.02740281 38.27789151 -2.91322925 38.27321834 -5.85491943 38.26226807 C-6.71484049 38.27391943 -7.57476154 38.2855708 -8.4607408 38.29757524 C-14.21966622 38.23938875 -14.21966622 38.23938875 -17.36607742 35.91506577 C-20.3032741 31.66239934 -19.53594502 26.52572001 -19.52734375 21.53125 C-19.56794922 20.42394531 -19.60855469 19.31664062 -19.65039062 18.17578125 C-19.65490234 17.09167969 -19.65941406 16.00757813 -19.6640625 14.890625 C-19.6808606 13.42061035 -19.6808606 13.42061035 -19.69799805 11.92089844 C-16.82610972 1.41379065 -9.92944879 -0.37981928 0 0 Z " fill="#D9D9D9" transform="translate(464.83984375,388.21875)"/>
<path d="M0 0 C0.75175507 -0.00014603 1.50351013 -0.00029205 2.27804565 -0.0004425 C4.75074193 0.00025144 7.22336189 0.00801949 9.69604492 0.01586914 C11.41525735 0.01773516 13.13447032 0.0191582 14.85368347 0.02015686 C19.36967446 0.02396753 23.88563309 0.03378542 28.40161133 0.04486084 C33.82485027 0.05690877 39.24810006 0.06148411 44.67134857 0.06731415 C52.90225942 0.07699797 61.13309931 0.09616466 69.36401367 0.11352539 C69.36401367 14.96352539 69.36401367 29.81352539 69.36401367 45.11352539 C65.07401367 45.11352539 60.78401367 45.11352539 56.36401367 45.11352539 C55.97338867 42.31404622 55.58276367 39.51456706 55.19213867 36.71508789 C54.6290364 34.03170622 54.6290364 34.03170622 52.59838867 32.88696289 C51.86104492 32.63172852 51.12370117 32.37649414 50.36401367 32.11352539 C49.59702148 31.75516602 48.8300293 31.39680664 48.03979492 31.02758789 C44.83370978 29.93237048 41.92939201 29.69324529 38.55151367 29.48852539 C36.8093457 29.37637695 36.8093457 29.37637695 35.03198242 29.26196289 C34.15155273 29.21297852 33.27112305 29.16399414 32.36401367 29.11352539 C32.36401367 32.74352539 32.36401367 36.37352539 32.36401367 40.11352539 C33.64598633 40.09612305 33.64598633 40.09612305 34.95385742 40.07836914 C36.05858398 40.0693457 37.16331055 40.06032227 38.30151367 40.05102539 C39.40366211 40.03942383 40.50581055 40.02782227 41.64135742 40.01586914 C44.36401367 40.11352539 44.36401367 40.11352539 45.36401367 41.11352539 C45.45115199 42.82124897 45.47101375 44.53251188 45.46166992 46.24243164 C45.45844727 47.2769043 45.45522461 48.31137695 45.4519043 49.37719727 C45.43933594 51.01011719 45.43933594 51.01011719 45.42651367 52.67602539 C45.42200195 53.76850586 45.41749023 54.86098633 45.4128418 55.98657227 C45.40101194 58.69561034 45.3845291 61.40454138 45.36401367 64.11352539 C44.70401367 64.11352539 44.04401367 64.11352539 43.36401367 64.11352539 C42.86901367 65.59852539 42.86901367 65.59852539 42.36401367 67.11352539 C22.89401367 67.11352539 3.42401367 67.11352539 -16.63598633 67.11352539 C-16.71993002 59.2531315 -16.80005811 51.3943659 -16.84298706 43.53391266 C-16.86408738 39.87332432 -16.89227112 36.21310799 -16.93774414 32.55273438 C-16.98128819 29.0254569 -17.00514122 25.49853959 -17.0154953 21.97101402 C-17.02645507 19.9740294 -17.05766781 17.97718915 -17.08917236 15.98042297 C-17.08947449 14.75953476 -17.08977661 13.53864655 -17.09008789 12.28076172 C-17.09897034 11.20820633 -17.10785278 10.13565094 -17.11700439 9.03059387 C-16.5053405 5.32124156 -15.34404262 3.69463815 -12.63598633 1.11352539 C-8.58861596 -0.32075895 -4.25794304 -0.021806 0 0 Z " fill="#D8D8D8" transform="translate(501.635986328125,469.886474609375)"/>
<path d="M0 0 C9.04530336 0.0064227 15.45023147 1.7217599 22.1640625 8.12109375 C27.89860145 14.00267216 29.36687638 19.39761732 29.6015625 27.43359375 C29.39534213 36.91973082 27.00183373 44.43872641 20.1640625 51.12109375 C11.22194544 57.80950651 1.0540417 58.4721948 -9.8359375 57.12109375 C-17.60985589 54.72307089 -21.5137304 49.50240168 -25.55859375 42.70703125 C-29.27006523 35.19328776 -29.00377623 24.66622728 -27.29296875 16.54296875 C-24.45025549 9.9767015 -17.96183751 3.98889984 -11.5234375 1.07421875 C-7.68702128 0.1151147 -3.94234563 0.12445287 0 0 Z " fill="#080808" transform="translate(627.8359375,680.87890625)"/>
<path d="M0 0 C16.83 0 33.66 0 51 0 C51.04125 6.703125 51.0825 13.40625 51.125 20.3125 C51.14320801 22.42567627 51.16141602 24.53885254 51.18017578 26.71606445 C51.18601675 28.39013413 51.19111325 30.06420665 51.1953125 31.73828125 C51.20554443 32.60819702 51.21577637 33.47811279 51.22631836 34.37438965 C51.22656006 35.20643921 51.22680176 36.03848877 51.22705078 36.89575195 C51.231492 37.61745071 51.23593323 38.33914948 51.24050903 39.0827179 C51 41 51 41 49 44 C48.34 44 47.68 44 47 44 C47 44.66 47 45.32 47 46 C31.49 46 15.98 46 0 46 C0 30.82 0 15.64 0 0 Z " fill="#D6D6D6" transform="translate(583,525)"/>
<path d="M0 0 C0.91471573 -0.00478363 1.82943146 -0.00956726 2.77186584 -0.01449585 C4.70429201 -0.01789469 6.63677567 -0.0086933 8.5690918 0.01220703 C11.52198081 0.03894321 14.47105825 0.01247576 17.42382812 -0.01953125 C19.30339379 -0.01622655 21.18295708 -0.00981906 23.0625 0 C24.38301613 -0.01518173 24.38301613 -0.01518173 25.73020935 -0.03067017 C29.8975867 0.04869493 32.08786075 0.33742147 35.66308594 2.62817383 C38.33415776 6.81984193 38.23462427 10.03080318 38.0859375 14.90234375 C38.0809021 15.68363647 38.0758667 16.4649292 38.07067871 17.26989746 C38.04463066 20.17249547 37.97482306 23.07456802 37.91015625 25.9765625 C37.80703125 32.4734375 37.70390625 38.9703125 37.59765625 45.6640625 C20.76765625 45.6640625 3.93765625 45.6640625 -13.40234375 45.6640625 C-13.48484375 39.1671875 -13.56734375 32.6703125 -13.65234375 25.9765625 C-13.68875977 23.93380127 -13.72517578 21.89104004 -13.76269531 19.78637695 C-13.77438312 18.15837657 -13.78457473 16.53036445 -13.79296875 14.90234375 C-13.81343262 14.06425171 -13.83389648 13.22615967 -13.85498047 12.3626709 C-13.85724585 8.55966611 -13.61107116 6.10510334 -11.96557617 2.62817383 C-8.12319659 -0.31610122 -4.7228709 -0.05417342 0 0 Z " fill="#D8D8D8" transform="translate(596.40234375,469.3359375)"/>
<path d="M0 0 C4.62 0 9.24 0 14 0 C14.51949219 1.03898438 15.03898437 2.07796875 15.57421875 3.1484375 C15.90993896 3.8197168 16.24565918 4.49099609 16.59155273 5.18261719 C17.32465783 6.649154 18.05723906 8.11595281 18.78930664 9.58300781 C20.38421444 12.77777324 21.98413113 15.96895555 23.609375 19.1484375 C24.26679688 20.43621094 24.26679688 20.43621094 24.9375 21.75 C25.31777344 22.48734375 25.69804687 23.2246875 26.08984375 23.984375 C26.98962763 25.97702944 27.54341756 27.86607788 28 30 C28.66 30 29.32 30 30 30 C30.99 28.02 31.98 26.04 33 24 C33.66 24 34.32 24 35 24 C35.66 21.36 36.32 18.72 37 16 C37.66 16 38.32 16 39 16 C39.10183594 15.29488281 39.20367187 14.58976563 39.30859375 13.86328125 C40.53710754 8.77570721 43.43416054 4.53116331 46 0 C50.62 0 55.24 0 60 0 C60 18.48 60 36.96 60 56 C55.38 56 50.76 56 46 56 C46 46.43 46 36.86 46 27 C45.34 27 44.68 27 44 27 C43.76216797 27.96099609 43.76216797 27.96099609 43.51953125 28.94140625 C41.88778889 34.99057268 39.82791267 39.06400734 36 44 C35.67 44.99 35.34 45.98 35 47 C31.7 47 28.4 47 25 47 C20.57142857 39.57142857 20.57142857 39.57142857 20 36 C19.34 36 18.68 36 18 36 C16.68 33.03 15.36 30.06 14 27 C13.67 36.57 13.34 46.14 13 56 C8.71 56 4.42 56 0 56 C0 37.52 0 19.04 0 0 Z " fill="#080808" transform="translate(359,682)"/>
<path d="M0 0 C3.96 0 7.92 0 12 0 C12 14.85 12 29.7 12 45 C-16.05 45 -44.1 45 -73 45 C-73 37.74 -73 30.48 -73 23 C-71.27442871 22.97494385 -69.54885742 22.9498877 -67.77099609 22.92407227 C-62.05529987 22.84001124 -56.33967867 22.75175239 -50.62409019 22.66066074 C-47.16039427 22.60561086 -43.69668968 22.55222075 -40.23291016 22.50268555 C-36.2463354 22.4455999 -32.25989498 22.38118395 -28.2734375 22.31640625 C-27.03572601 22.29969376 -25.79801453 22.28298126 -24.52279663 22.26576233 C-23.3620462 22.24581711 -22.20129578 22.22587189 -21.00537109 22.20532227 C-19.98833099 22.18977798 -18.97129089 22.1742337 -17.9234314 22.15821838 C-14.88769279 21.99392185 -11.98710247 21.55443998 -9 21 C-9 20.34 -9 19.68 -9 19 C-7.625 17.375 -7.625 17.375 -6 16 C-5.34 16 -4.68 16 -4 16 C-2.07528683 10.66164461 -0.60108576 5.65020618 0 0 Z " fill="#D9D9D9" transform="translate(559,526)"/>
<path d="M0 0 C1.01228951 0.33843618 2.02457903 0.67687237 3.06754398 1.02556419 C7.46001746 2.26989274 11.69168856 2.28893604 16.23179626 2.2784729 C17.14024231 2.2842653 18.04868836 2.2900577 18.98466307 2.29602563 C22.01707413 2.31297915 25.04933255 2.31589815 28.08178711 2.31884766 C30.26013561 2.32814903 32.43848056 2.33831801 34.61682129 2.34928894 C40.52323565 2.37657932 46.42962617 2.39173557 52.33608699 2.40471697 C58.5114037 2.42035165 64.68667177 2.44714083 70.86195374 2.4727478 C82.55251312 2.51952955 94.24308166 2.55627663 105.93368679 2.58942068 C119.24438871 2.62764629 132.55503809 2.67705532 145.86569965 2.72740483 C173.24376354 2.83071573 200.62185883 2.91997892 228 3 C228 3.66 228 4.32 228 5 C226.68 5.66 225.36 6.32 224 7 C224.99 6.67 225.98 6.34 227 6 C227.33 7.65 227.66 9.3 228 11 C225.25355857 11.77260791 222.81095627 12.12681628 219.96101475 12.13422108 C219.16191986 12.13867892 218.36282497 12.14313676 217.53951508 12.14772969 C216.66744083 12.14754533 215.79536658 12.14736097 214.89686584 12.14717102 C213.96592604 12.15084771 213.03498623 12.1545244 212.07583612 12.1583125 C208.94907073 12.16934644 205.82233858 12.17319264 202.69555664 12.17700195 C200.45680129 12.18326663 198.21804699 12.18991343 195.97929382 12.19691467 C189.89261584 12.2143194 183.8059457 12.2248742 177.71924901 12.2331202 C173.91872664 12.23826964 170.11820672 12.24434528 166.31768608 12.25063133 C155.79446398 12.26749646 145.27124302 12.28213315 134.74800968 12.28938007 C132.01893678 12.29128992 129.28986389 12.29321027 126.56079102 12.29516602 C125.88250441 12.29564976 125.2042178 12.2961335 124.50537705 12.2966319 C113.50939567 12.30493821 102.51352286 12.33028797 91.51758892 12.36274669 C80.22748476 12.39580221 68.93743381 12.41349438 57.64727491 12.41702431 C51.30846397 12.41937903 44.96982484 12.42839493 38.63105965 12.45348549 C32.67125362 12.47669582 26.71173343 12.48102778 20.751894 12.47072411 C18.56251578 12.47022698 16.37312382 12.47659907 14.1837883 12.49028015 C11.19888535 12.50789198 8.21502025 12.50094563 5.2301178 12.48774719 C3.92535251 12.50420106 3.92535251 12.50420106 2.59422833 12.52098733 C-1.43542599 12.47785659 -3.49640071 12.3125345 -6.99485111 10.1413908 C-9.13691448 7.85378272 -10.08929306 5.98049545 -11 3 C-9.35 2.67 -7.7 2.34 -6 2 C-6 1.34 -6 0.68 -6 0 C-3.40513158 -1.29743421 -2.75855577 -0.82011118 0 0 Z " fill="#030303" transform="translate(449,424)"/>
<path d="M0 0 C4.62 0 9.24 0 14 0 C14 18.81 14 37.62 14 57 C9.05 57 4.1 57 -1 57 C-1.66 55.35 -2.32 53.7 -3 52 C-4.01513392 50.4063201 -5.08110732 48.84423357 -6.1875 47.3125 C-6.80625 46.44882812 -7.425 45.58515625 -8.0625 44.6953125 C-9.0215625 43.36113281 -9.0215625 43.36113281 -10 42 C-11.23099854 40.2304396 -12.46022402 38.4596442 -13.6875 36.6875 C-16.01663204 33.32443345 -18.43116377 30.21104529 -21 27 C-21.33 36.9 -21.66 46.8 -22 57 C-26.62 57 -31.24 57 -36 57 C-36 38.52 -36 20.04 -36 1 C-31.38 1 -26.76 1 -22 1 C-18.86384927 4.84431379 -17.12761534 7.67140328 -15 12 C-13.6134345 14.14476236 -12.19665452 16.27030046 -10.75 18.375 C-4 28.392 -4 28.392 -4 31 C-3.34 31 -2.68 31 -2 31 C-2 31.66 -2 32.32 -2 33 C-1.34 33 -0.68 33 0 33 C0 22.11 0 11.22 0 0 Z " fill="#0B0B0B" transform="translate(709,681)"/>
<path d="M0 0 C3.63 0 7.26 0 11 0 C11.00238835 0.75722162 11.00477671 1.51444324 11.00723743 2.29461098 C11.0663841 20.72301236 11.14193206 39.15127977 11.23571491 57.57953835 C11.28067256 66.49132733 11.3200873 75.40307636 11.34643555 84.31494141 C11.36941588 92.08290041 11.40281429 99.85073296 11.44870156 107.61859167 C11.47263334 111.73128787 11.4913624 115.84385884 11.49761391 119.95662308 C11.503665 123.82920851 11.5236655 127.7014735 11.55427551 131.57394028 C11.56305538 132.99367294 11.56677841 134.41344747 11.56500816 135.83320618 C11.56335135 137.77544788 11.58184692 139.71767529 11.60127258 141.65982056 C11.60818603 143.28862876 11.60818603 143.28862876 11.61523914 144.95034218 C12.21913701 149.7369046 14.12406381 153.78805061 17.9375 156.8125 C20.95066016 159.24728657 20.95066016 159.24728657 25 160 C25 163.63 25 167.26 25 171 C17.17625842 171.12618938 13.78465346 168.73913248 8.1640625 163.421875 C6.02099543 161.02349669 4.50305997 158.83818028 3 156 C2.48318161 155.08903061 1.96636322 154.17806122 1.43388367 153.23948669 C-1.04727356 147.33274231 -0.39138752 140.81640506 -0.34057617 134.52758789 C-0.33972909 133.05859393 -0.34020662 131.5895987 -0.34190369 130.12060547 C-0.34276191 126.14789388 -0.32516433 122.17545586 -0.30418181 118.20280766 C-0.28538609 114.04549258 -0.2836623 109.88817073 -0.28010559 105.7308197 C-0.27079361 97.86510622 -0.24619135 89.99951832 -0.21605712 82.13386005 C-0.18248669 73.17620753 -0.16602046 64.21854892 -0.15097082 55.26084912 C-0.11964101 36.84049497 -0.06689704 18.42025759 0 0 Z " fill="#0A0A0A" transform="translate(435,457)"/>
<path d="M0 0 C3.61935745 2.73315322 5.35259037 5.6515952 7.25 9.75 C7.25 10.74 7.25 11.73 7.25 12.75 C4.79101345 12.83076963 2.33466258 12.89037143 -0.125 12.9375 C-0.82367188 12.96263672 -1.52234375 12.98777344 -2.2421875 13.01367188 C-4.2734375 13.04296875 -4.2734375 13.04296875 -7.75 12.75 C-8.41 11.76 -9.07 10.77 -9.75 9.75 C-15.20669265 7.93110245 -22.61580687 7.22556487 -27.90234375 9.796875 C-30.00233803 11.54259152 -31.52697285 13.3039457 -32.75 15.75 C-33.74755211 25.2856109 -33.74755211 25.2856109 -30.5625 34 C-26.93690802 37.54502327 -24.48396935 38.64836053 -19.41796875 38.9453125 C-18.26941406 38.92210937 -17.12085938 38.89890625 -15.9375 38.875 C-14.77605469 38.85695313 -13.61460937 38.83890625 -12.41796875 38.8203125 C-11.53753906 38.79710937 -10.65710938 38.77390625 -9.75 38.75 C-9.75 38.09 -9.75 37.43 -9.75 36.75 C-9.09 36.75 -8.43 36.75 -7.75 36.75 C-7.42 35.76 -7.09 34.77 -6.75 33.75 C-6.09 33.75 -5.43 33.75 -4.75 33.75 C-4.75 32.1 -4.75 30.45 -4.75 28.75 C-9.04 28.75 -13.33 28.75 -17.75 28.75 C-17.75 25.78 -17.75 22.81 -17.75 19.75 C-8.84 19.75 0.07 19.75 9.25 19.75 C9.25 30.95785662 8.34620876 37.7157858 0.40234375 45.83203125 C-6.12570451 51.64922126 -11.63858274 52.28699735 -20.33984375 52.0078125 C-29.10971733 51.344798 -35.30775098 49.73964031 -41.3046875 42.7890625 C-47.16245025 34.51634267 -49.14970468 28.08932797 -47.75 17.75 C-47.43962189 16.07890625 -47.11478198 14.41006717 -46.75 12.75 C-46.09 12.75 -45.43 12.75 -44.75 12.75 C-44.65332031 12.01007812 -44.55664062 11.27015625 -44.45703125 10.5078125 C-43.65623927 7.38428134 -42.59847809 5.98495466 -40.4375 3.625 C-39.54611328 2.63113281 -39.54611328 2.63113281 -38.63671875 1.6171875 C-28.22862736 -8.68315968 -11.74663971 -7.49311964 0 0 Z " fill="#0A0A0A" transform="translate(481.75,686.25)"/>
<path d="M0 0 C5.0645642 3.30365419 9.94701486 7.0756044 11.3984375 13.15234375 C11.51445313 13.90644531 11.63046875 14.66054688 11.75 15.4375 C9.35293877 15.54604617 6.96084162 15.62503157 4.5625 15.6875 C3.88896484 15.72101562 3.21542969 15.75453125 2.52148438 15.7890625 C-2.47324174 15.88652057 -4.64835158 14.7896559 -8.25 11.4375 C-13.65115361 9.63711546 -18.4671082 9.57907062 -23.625 12.0625 C-27.21972425 15.31486956 -28.91537995 17.93817738 -29.56640625 22.80078125 C-29.85588102 28.95445449 -28.66314947 32.36949018 -25.25 37.4375 C-24.92 38.4275 -24.59 39.4175 -24.25 40.4375 C-20.93455701 41.54264766 -18.04589889 41.75857631 -14.5625 42 C-13.38300781 42.08378906 -12.20351563 42.16757812 -10.98828125 42.25390625 C-9.63283203 42.34478516 -9.63283203 42.34478516 -8.25 42.4375 C-8.25 41.7775 -8.25 41.1175 -8.25 40.4375 C-6.6 39.7775 -4.95 39.1175 -3.25 38.4375 C-3.25 37.7775 -3.25 37.1175 -3.25 36.4375 C1.7 36.4375 6.65 36.4375 11.75 36.4375 C10.28693334 43.75283328 7.76491617 46.72960933 1.98046875 51.10546875 C-3.56736433 54.418623 -8.83505586 54.80199926 -15.125 54.8125 C-15.88941406 54.83699219 -16.65382813 54.86148438 -17.44140625 54.88671875 C-23.37462511 54.91693888 -27.11793402 53.39515989 -32.25 50.4375 C-32.25 49.7775 -32.25 49.1175 -32.25 48.4375 C-33.0853125 48.1590625 -33.0853125 48.1590625 -33.9375 47.875 C-38.69551466 44.91731521 -41.57913505 39.68878983 -43.25 34.4375 C-43.49162166 31.82180506 -43.63117911 29.36314698 -43.625 26.75 C-43.62338867 26.04536621 -43.62177734 25.34073242 -43.62011719 24.61474609 C-43.48483415 18.81746989 -42.6338858 13.30444685 -39.25 8.4375 C-37.91666667 7.77083333 -36.58333333 7.10416667 -35.25 6.4375 C-34.55396822 5.11925799 -33.88771127 3.78492219 -33.25 2.4375 C-25.0982094 -5.46474599 -9.53681205 -4.85985491 0 0 Z " fill="#080808" transform="translate(576.25,683.5625)"/>
<path d="M0 0 C5.28 0 10.56 0 16 0 C16.30292969 1.16015625 16.60585938 2.3203125 16.91796875 3.515625 C19.10499693 11.72468766 21.47348303 19.51498066 24.9296875 27.296875 C26.56228036 31.42006573 27.35167135 35.62620075 28 40 C28.66 40 29.32 40 30 40 C30.13535156 39.35417969 30.27070312 38.70835937 30.41015625 38.04296875 C32.16609103 30.35681112 34.68002643 23.12370878 37.48657227 15.7644043 C39.21651601 11.2154332 40.7383155 6.70150094 42 2 C42.66 2 43.32 2 44 2 C44 1.34 44 0.68 44 0 C48.62 0 53.24 0 58 0 C56.16055857 8.12419964 53.48314302 15.86783485 50 23.4375 C47.98099222 27.85407951 46.50153153 32.38749115 45.0078125 37.00390625 C43.79253632 40.61676218 42.39273086 44.12987868 40.9296875 47.6484375 C39.84503032 50.39198213 38.93292649 53.20122053 38 56 C32.39 56 26.78 56 21 56 C20.03578125 53.43347656 19.0715625 50.86695313 18.078125 48.22265625 C17.13214982 45.71028905 16.18525864 43.19826888 15.23828125 40.6862793 C14.58563197 38.95356639 13.93392069 37.22049984 13.28320312 35.48706055 C12.34237042 32.98129983 11.39806039 30.47687227 10.453125 27.97265625 C10.16753723 27.20977798 9.88194946 26.44689972 9.58770752 25.66090393 C7.83029045 21.01555667 5.91757414 16.47156633 3.85583496 11.95275879 C2.16163707 8.08710714 1.14237525 4.05543213 0 0 Z " fill="#090909" transform="translate(735,682)"/>
<path d="M0 0 C4.17714788 2.45850586 6.69469241 4.5851507 8.8046875 9.05859375 C9.54305745 14.31947967 10.01546103 20.22310703 7.890625 25.19921875 C4.77355319 29.18102661 0.6007121 31.70228619 -4.40234375 32.33984375 C-9.1245146 32.52779085 -12.54008592 32.30768405 -16.1953125 29.05859375 C-20.73713836 23.92544984 -21.89773705 19.3375207 -21.55078125 12.5390625 C-20.74751643 6.9338629 -17.28218859 3.73678223 -13.1953125 0.05859375 C-8.61384841 -1.46856095 -4.47002064 -1.91685938 0 0 Z " fill="#D3D3D3" transform="translate(634.1953125,693.94140625)"/>
<path d="M0 0 C4.29 0 8.58 0 13 0 C13 18.81 13 37.62 13 57 C8.71 57 4.42 57 0 57 C0 38.19 0 19.38 0 0 Z " fill="#0D0D0D" transform="translate(329,681)"/>
<path d="M0 0 C1.14210938 -0.01417969 2.28421875 -0.02835938 3.4609375 -0.04296875 C6.48589532 0.17736768 8.13798805 0.50788293 10.625 2.1875 C10.955 2.8475 11.285 3.5075 11.625 4.1875 C14.15233235 4.84305119 14.15233235 4.84305119 16.625 5.1875 C16.955 6.1775 17.285 7.1675 17.625 8.1875 C16.305 8.1875 14.985 8.1875 13.625 8.1875 C13.625 8.8475 13.625 9.5075 13.625 10.1875 C18.575 10.5175 23.525 10.8475 28.625 11.1875 C28.625 11.5175 28.625 11.8475 28.625 12.1875 C19.715 12.1875 10.805 12.1875 1.625 12.1875 C1.625 15.1575 1.625 18.1275 1.625 21.1875 C5.915 21.1875 10.205 21.1875 14.625 21.1875 C14.625 26.1875 14.625 26.1875 13.25 28 C11.625 29.1875 11.625 29.1875 9.625 29.1875 C9.625 29.8475 9.625 30.5075 9.625 31.1875 C4.82462605 33.58768697 -1.79875644 32.68372483 -6.75 31.125 C-11.51677132 27.60666879 -13.95501267 24.87478734 -14.89453125 18.86328125 C-15.15784053 13.10109438 -15.34699319 8.44035064 -11.5 3.875 C-7.75368996 0.28252394 -5.17195653 0.02905594 0 0 Z " fill="#D5D5D5" transform="translate(462.375,693.8125)"/>
<path d="M0 0 C68.97 0 137.94 0 209 0 C209 0.33 209 0.66 209 1 C208.26062793 1.00238835 207.52125586 1.00477671 206.75947857 1.00723743 C188.78276767 1.06633049 170.80619474 1.14184382 152.82963085 1.23571491 C144.1363515 1.28071251 135.44311348 1.32011794 126.74975586 1.34643555 C119.17409635 1.36938362 111.59856721 1.40274566 104.02301103 1.44870156 C100.01045524 1.47267705 95.9980289 1.49137737 91.98540306 1.49761391 C88.21049438 1.50364534 84.4359171 1.52357406 80.66113091 1.55427551 C79.27400256 1.56308706 77.88683096 1.56677189 76.49967575 1.56500816 C74.60893272 1.56336282 72.71820364 1.58177439 70.82756042 1.60127258 C69.76842029 1.60588155 68.70928015 1.61049051 67.61804485 1.61523914 C64.62521327 2.05508052 63.91244024 2.76249059 62 5 C61.34 5 60.68 5 60 5 C60 7.64 60 10.28 60 13 C59.505 12.01 59.505 12.01 59 11 C58.67 11.33 58.34 11.66 58 12 C58.061875 12.94875 58.12375 13.8975 58.1875 14.875 C58 18 58 18 56.3125 19.875 C53.66729453 21.16185671 51.90566174 21.24213848 49 21 C48.505 19.515 48.505 19.515 48 18 C47.01 18 46.02 18 45 18 C44.81548975 8.58997722 44.81548975 8.58997722 46 4 C46.99 3.67 47.98 3.34 49 3 C46.36 3 43.72 3 41 3 C41 2.67 41 2.34 41 2 C20.705 1.505 20.705 1.505 0 1 C0 0.67 0 0.34 0 0 Z " fill="#868686" transform="translate(455,388)"/>
<path d="M0 0 C1.51400391 0.01740234 1.51400391 0.01740234 3.05859375 0.03515625 C4.07050781 0.04417969 5.08242188 0.05320312 6.125 0.0625 C7.29869141 0.07990234 7.29869141 0.07990234 8.49609375 0.09765625 C8.49609375 1.41765625 8.49609375 2.73765625 8.49609375 4.09765625 C5.85609375 4.09765625 3.21609375 4.09765625 0.49609375 4.09765625 C0.49609375 5.41765625 0.49609375 6.73765625 0.49609375 8.09765625 C3.13609375 7.43765625 5.77609375 6.77765625 8.49609375 6.09765625 C8.49609375 7.08765625 8.49609375 8.07765625 8.49609375 9.09765625 C9.48609375 8.10765625 10.47609375 7.11765625 11.49609375 6.09765625 C11.49609375 7.08765625 11.49609375 8.07765625 11.49609375 9.09765625 C12.48609375 8.43765625 13.47609375 7.77765625 14.49609375 7.09765625 C15.15609375 7.42765625 15.81609375 7.75765625 16.49609375 8.09765625 C16.49609375 5.45765625 16.49609375 2.81765625 16.49609375 0.09765625 C24.53110469 -0.53254069 24.53110469 -0.53254069 28.55859375 2.09765625 C29.19796875 2.75765625 29.83734375 3.41765625 30.49609375 4.09765625 C30.16609375 6.07765625 29.83609375 8.05765625 29.49609375 10.09765625 C28.17609375 10.42765625 26.85609375 10.75765625 25.49609375 11.09765625 C26.48609375 12.24234375 26.48609375 12.24234375 27.49609375 13.41015625 C29.49609375 16.09765625 29.49609375 16.09765625 29.49609375 19.09765625 C28.50609375 19.09765625 27.51609375 19.09765625 26.49609375 19.09765625 C25.11485412 17.13043617 23.78121249 15.12897297 22.49609375 13.09765625 C21.83609375 12.76765625 21.17609375 12.43765625 20.49609375 12.09765625 C20.49609375 14.40765625 20.49609375 16.71765625 20.49609375 19.09765625 C19.50609375 19.09765625 18.51609375 19.09765625 17.49609375 19.09765625 C17.16609375 16.12765625 16.83609375 13.15765625 16.49609375 10.09765625 C14.51609375 11.74765625 12.53609375 13.39765625 10.49609375 15.09765625 C9.83609375 14.76765625 9.17609375 14.43765625 8.49609375 14.09765625 C8.16609375 15.74765625 7.83609375 17.39765625 7.49609375 19.09765625 C3.86609375 19.09765625 0.23609375 19.09765625 -3.50390625 19.09765625 C-3.53074612 16.11843032 -3.55066662 13.1394433 -3.56640625 10.16015625 C-3.57478516 9.31001953 -3.58316406 8.45988281 -3.59179688 7.58398438 C-3.59501953 6.77509766 -3.59824219 5.96621094 -3.6015625 5.1328125 C-3.60679932 4.38394775 -3.61203613 3.63508301 -3.61743164 2.86352539 C-3.4339598 0.00965048 -2.85703563 0.11142885 0 0 Z " fill="#C9CAC9" transform="translate(578.50390625,769.90234375)"/>
<path d="M0 0 C0.33 0 0.66 0 1 0 C1.00238835 0.75722162 1.00477671 1.51444324 1.00723743 2.29461098 C1.0663841 20.72301236 1.14193206 39.15127977 1.23571491 57.57953835 C1.28067256 66.49132733 1.3200873 75.40307636 1.34643555 84.31494141 C1.36941588 92.08290041 1.40281429 99.85073296 1.44870156 107.61859167 C1.47263334 111.73128787 1.4913624 115.84385884 1.49761391 119.95662308 C1.503665 123.82920851 1.5236655 127.7014735 1.55427551 131.57394028 C1.56305538 132.99367294 1.56677841 134.41344747 1.56500816 135.83320618 C1.56335135 137.77544788 1.58184692 139.71767529 1.60127258 141.65982056 C1.60818603 143.28862876 1.60818603 143.28862876 1.61523914 144.95034218 C2.21913701 149.7369046 4.12406381 153.78805061 7.9375 156.8125 C10.95066016 159.24728657 10.95066016 159.24728657 15 160 C15 163.63 15 167.26 15 171 C7.17625842 171.12618938 3.78465346 168.73913248 -1.8359375 163.421875 C-3.95474418 161.05064731 -5.56207616 158.83341715 -7 156 C-6.6875 153.6875 -6.6875 153.6875 -6 152 C-5.34 152 -4.68 152 -4 152 C-3.67 150.35 -3.34 148.7 -3 147 C-2.34 147.66 -1.68 148.32 -1 149 C-0.67 99.83 -0.34 50.66 0 0 Z " fill="#252525" transform="translate(445,457)"/>
<path d="M0 0 C2.875 1.875 2.875 1.875 5 4 C5 4.66 5 5.32 5 6 C3.9790625 5.505 3.9790625 5.505 2.9375 5 C-0.55825899 3.80995439 -3.32937859 3.72297197 -7 4 C-9.29575603 6.29575603 -9.32339599 7.00842525 -9.625 10.125 C-9.74875 11.40375 -9.8725 12.6825 -10 14 C-9.34 14 -8.68 14 -8 14 C-8 14.66 -8 15.32 -8 16 C-6.72125 15.896875 -5.4425 15.79375 -4.125 15.6875 C-3.40570313 15.62949219 -2.68640625 15.57148437 -1.9453125 15.51171875 C0.39519216 15.12606964 0.39519216 15.12606964 2 12 C0.02 12 -1.96 12 -4 12 C-4 11.01 -4 10.02 -4 9 C-3.32453125 8.96261719 -2.6490625 8.92523437 -1.953125 8.88671875 C-1.06109375 8.82097656 -0.1690625 8.75523437 0.75 8.6875 C1.63171875 8.62949219 2.5134375 8.57148437 3.421875 8.51171875 C6.32303774 7.9358819 7.79225607 6.92403852 10 5 C10.66 5.33 11.32 5.66 12 6 C12.66 4.02 13.32 2.04 14 0 C17.63 0 21.26 0 25 0 C25 0.99 25 1.98 25 3 C22.36 3 19.72 3 17 3 C17 4.65 17 6.3 17 8 C19.31 8 21.62 8 24 8 C24 8.99 24 9.98 24 11 C21.36 11 18.72 11 16 11 C16 12.98 16 14.96 16 17 C18.64 17 21.28 17 24 17 C24 17.66 24 18.32 24 19 C22.86111328 19.09087891 22.86111328 19.09087891 21.69921875 19.18359375 C20.70535156 19.26738281 19.71148437 19.35117187 18.6875 19.4375 C17.70136719 19.51871094 16.71523438 19.59992187 15.69921875 19.68359375 C12.90624401 19.91812559 12.90624401 19.91812559 10 21 C7 21 7 21 5 20 C5.33 19.34 5.66 18.68 6 18 C5.34 18.33 4.68 18.66 4 19 C-1.56593226 19.5755026 -6.35886519 19.97836883 -11.25 17.0625 C-13.58541245 12.97552821 -14.1011548 9.60248297 -13 5 C-9.01975617 0.81026965 -5.72905942 -0.56167249 0 0 Z " fill="#D1D1D1" transform="translate(424,770)"/>
<path d="M0 0 C0 0.66 0 1.32 0 2 C1.2065625 2.433125 1.2065625 2.433125 2.4375 2.875 C5 4 5 4 6 6 C6.47823278 9.08127196 6.57808529 11.92925337 6 15 C3.86704545 17.80237413 1.14146646 19.42926677 -2 21 C-6.18144011 21.39447548 -8.30946048 21.45035186 -11.875 19.125 C-14.69974128 16.30025872 -15.20274282 14.64566229 -15.375 10.75 C-15.31126177 7.46216986 -14.98521333 5.18196967 -13.125 2.4375 C-8.78244244 -0.9496949 -5.31470339 -0.55726987 0 0 Z " fill="#0B0B0B" transform="translate(518,497)"/>
<path d="M0 0 C5.57894737 3.15789474 5.57894737 3.15789474 7 6 C7.58394161 13.24087591 7.58394161 13.24087591 5.125 16.4375 C1.75191516 18.91770944 -0.7177721 19.41315534 -4.95703125 19.3359375 C-7 19 -7 19 -10 17 C-12.23495494 13.64756759 -12.67920629 11.87083725 -12.43359375 7.93359375 C-11.75194607 4.89381354 -10.19767713 3.13303956 -8 1 C-5.13391871 -0.43304064 -3.18699217 -0.30644155 0 0 Z " fill="#CFCFCF" transform="translate(760,770)"/>
<path d="M0 0 C2.8797993 2.02198674 4.64956037 3.45068794 5.4453125 6.96875 C5.64499703 10.53644697 5.30996991 12.59703912 3.125 15.4375 C-0.26569826 17.93066048 -2.75941042 18.42115832 -7.0234375 18.328125 C-9 18 -9 18 -11.5 16.125 C-13.56314744 11.82677617 -13.88327664 7.69489387 -13 3 C-9.43445913 -1.63624265 -5.34980635 -1.29133257 0 0 Z " fill="#D4D4D4" transform="translate(669,771)"/>
<path d="M0 0 C4.35117168 0.76336345 6.45232112 1.4389631 9.5625 4.625 C10.31520074 8.08397591 10.25459086 11.15877828 9.5625 14.625 C7.67734777 17.20137471 6.36915143 18.22167428 3.5625 19.625 C-3.57419065 20.31564748 -3.57419065 20.31564748 -6.9375 17.625 C-8.82412049 13.85175903 -9.34595837 10.71306268 -8.4375 6.625 C-6.53937839 2.65238264 -4.42833157 0.80515119 0 0 Z " fill="#2B2C2B" transform="translate(506.4375,769.375)"/>
<path d="M0 0 C0.33 0 0.66 0 1 0 C1 9.57 1 19.14 1 29 C-27.46816095 29.09039333 -55.93629089 29.16202101 -84.40456723 29.20426132 C-87.76417787 29.20926425 -91.12378823 29.21444153 -94.48339844 29.21972656 C-95.1522469 29.2207758 -95.82109537 29.22182505 -96.51021197 29.22290608 C-107.34545307 29.24031958 -118.18060942 29.27186243 -129.01580021 29.30861118 C-140.13061263 29.3459944 -151.24539044 29.36793081 -162.36026406 29.37635398 C-168.60465833 29.38157769 -174.8488603 29.39389101 -181.09319305 29.42292023 C-186.96674922 29.45000534 -192.84003326 29.45845892 -198.71364594 29.45243073 C-200.87280759 29.45353405 -203.03197804 29.46152875 -205.19108582 29.4768219 C-208.13275344 29.49664151 -211.0733855 29.49196834 -214.01507568 29.48101807 C-214.87499674 29.49266943 -215.73491779 29.5043208 -216.62089705 29.51632524 C-222.37803495 29.45815681 -222.37803495 29.45815681 -225.53714371 27.13106918 C-227.36527305 24.46787518 -227.41833972 22.94845459 -227.25 19.75 C-227.21390625 18.85796875 -227.1778125 17.9659375 -227.140625 17.046875 C-227.09421875 16.37140625 -227.0478125 15.6959375 -227 15 C-226.67 15 -226.34 15 -226 15 C-226 17.97 -226 20.94 -226 24 C-224.35 24.33 -222.7 24.66 -221 25 C-221.33 25.99 -221.66 26.98 -222 28 C-148.74 28 -75.48 28 0 28 C0 18.76 0 9.52 0 0 Z " fill="#BBBBBB" transform="translate(673,397)"/>
<path d="M0 0 C4.29 0 8.58 0 13 0 C13.268125 1.2375 13.53625 2.475 13.8125 3.75 C14.63881995 7.10283779 15.62671274 9.41095936 18 12 C16.625 14 16.625 14 15 16 C14.34 16 13.68 16 13 16 C12.34 17.32 11.68 18.64 11 20 C10.40251953 19.29423828 10.40251953 19.29423828 9.79296875 18.57421875 C8.99826172 17.64029297 8.99826172 17.64029297 8.1875 16.6875 C7.66542969 16.07261719 7.14335938 15.45773437 6.60546875 14.82421875 C5.04631583 12.99855276 5.04631583 12.99855276 3.375 11.453125 C0.31477183 8.21902023 0 4.27375379 0 0 Z " fill="#0F0F0F" transform="translate(515,602)"/>
<path d="M0 0 C0.66 0.33 1.32 0.66 2 1 C2 19.48 2 37.96 2 57 C1.67 57 1.34 57 1 57 C0.92652344 55.93458984 0.92652344 55.93458984 0.8515625 54.84765625 C0.77679688 53.92855469 0.70203125 53.00945313 0.625 52.0625 C0.55539062 51.14597656 0.48578125 50.22945312 0.4140625 49.28515625 C0.27742188 48.53105469 0.14078125 47.77695312 0 47 C-0.66 46.67 -1.32 46.34 -2 46 C-2 32.14 -2 18.28 -2 4 C-1.01 4 -0.02 4 1 4 C0.67 2.68 0.34 1.36 0 0 Z " fill="#DEDEDE" transform="translate(356,682)"/>
<path d="M0 0 C8 0 8 0 11 2 C11.66 2.66 12.32 3.32 13 4 C12.67 5.98 12.34 7.96 12 10 C10.68 10.33 9.36 10.66 8 11 C8.99 12.1446875 8.99 12.1446875 10 13.3125 C12 16 12 16 12 19 C11.01 19 10.02 19 9 19 C7.61876037 17.03277992 6.28511874 15.03131672 5 13 C4.34 12.67 3.68 12.34 3 12 C3 14.31 3 16.62 3 19 C2.01 19 1.02 19 0 19 C0 12.73 0 6.46 0 0 Z " fill="#373837" transform="translate(596,770)"/>
<path d="M0 0 C1.32 0 2.64 0 4 0 C4.33 1.32 4.66 2.64 5 4 C5.66 4 6.32 4 7 4 C11 10.625 11 10.625 11 14 C11.66 14 12.32 14 13 14 C13 9.38 13 4.76 13 0 C13.99 0 14.98 0 16 0 C16 6.27 16 12.54 16 19 C14.68 19 13.36 19 12 19 C10.078125 16.6640625 10.078125 16.6640625 8.25 13.625 C7.32960938 12.12839844 7.32960938 12.12839844 6.390625 10.6015625 C5 8 5 8 5 6 C4.34 6 3.68 6 3 6 C3 10.29 3 14.58 3 19 C2.01 19 1.02 19 0 19 C0 12.73 0 6.46 0 0 Z " fill="#2E2E2E" transform="translate(684,770)"/>
<path d="M0 0 C1.32 0 2.64 0 4 0 C4.45375 1.216875 4.9075 2.43375 5.375 3.6875 C6.54452941 6.8080927 7.74562438 9.91230616 9 13 C10.8272911 10.25906335 11.93698178 7.86174676 13.125 4.8125 C13.47820312 3.91144531 13.83140625 3.01039063 14.1953125 2.08203125 C14.46085937 1.39496094 14.72640625 0.70789063 15 0 C16.32 0 17.64 0 19 0 C19 5.94 19 11.88 19 18 C18.01 18 17.02 18 16 18 C15.67 14.37 15.34 10.74 15 7 C14.401875 8.629375 13.80375 10.25875 13.1875 11.9375 C12.16796875 14.71484375 12.16796875 14.71484375 11 17 C10.01 17.33 9.02 17.66 8 18 C6.35 14.04 4.7 10.08 3 6 C2.67 9.63 2.34 13.26 2 17 C1.34 17 0.68 17 0 17 C0 11.39 0 5.78 0 0 Z " fill="#242424" transform="translate(358,771)"/>
<path d="M0 0 C1.60875 -0.04125 3.2175 -0.0825 4.875 -0.125 C5.77992188 -0.14820313 6.68484375 -0.17140625 7.6171875 -0.1953125 C10 0 10 0 12 2 C12.125 5.125 12.125 5.125 12 8 C10.02 8.99 10.02 8.99 8 10 C8 10.99 8 11.98 8 13 C8.66 13 9.32 13 10 13 C10.66 14.65 11.32 16.3 12 18 C10.125 17.875 10.125 17.875 8 17 C6.75 13.9375 6.75 13.9375 6 11 C4.68 11 3.36 11 2 11 C2 13.31 2 15.62 2 18 C1.34 18 0.68 18 0 18 C0 12.06 0 6.12 0 0 Z " fill="#1C1D1D" transform="translate(777,771)"/>
<path d="M0 0 C2.875 1.875 2.875 1.875 5 4 C5 4.66 5 5.32 5 6 C3.9790625 5.505 3.9790625 5.505 2.9375 5 C-0.55825899 3.80995439 -3.32937859 3.72297197 -7 4 C-9.29575603 6.29575603 -9.32339599 7.00842525 -9.625 10.125 C-9.74875 11.40375 -9.8725 12.6825 -10 14 C-9.34 14 -8.68 14 -8 14 C-8 14.66 -8 15.32 -8 16 C-6.72125 15.896875 -5.4425 15.79375 -4.125 15.6875 C-3.40570313 15.62949219 -2.68640625 15.57148437 -1.9453125 15.51171875 C0.39519216 15.12606964 0.39519216 15.12606964 2 12 C0.02 12 -1.96 12 -4 12 C-4 11.01 -4 10.02 -4 9 C-1.03 9 1.94 9 5 9 C5.51264032 12.58848221 5.13857753 13.80512535 3 16.8125 C-0.34575327 19.25211176 -2.02158588 19.77113286 -6.0625 19.47265625 C-9.66317126 18.59426669 -11.00772296 17.05067422 -13 14 C-13.6836066 10.85092697 -13.75135711 8.14043792 -13 5 C-9.01975617 0.81026965 -5.72905942 -0.56167249 0 0 Z " fill="#303030" transform="translate(424,770)"/>
<path d="M0 0 C1.65 0 3.3 0 5 0 C5.83887056 2.43572059 6.67126529 4.87333217 7.5 7.3125 C7.73847656 8.00279297 7.97695313 8.69308594 8.22265625 9.40429688 C9.23208263 12.38931489 10 14.82658914 10 18 C9.01 17.67 8.02 17.34 7 17 C7 16.01 7 15.02 7 14 C4.03 14 1.06 14 -2 14 C-2.33 15.32 -2.66 16.64 -3 18 C-3.66 18 -4.32 18 -5 18 C-4.51030705 11.38914524 -2.66557258 6.05022986 0 0 Z " fill="#3C3C3C" transform="translate(392,771)"/>
<path d="M0 0 C5.57894737 3.15789474 5.57894737 3.15789474 7 6 C7.58394161 13.24087591 7.58394161 13.24087591 5.125 16.4375 C1.75191516 18.91770944 -0.7177721 19.41315534 -4.95703125 19.3359375 C-7 19 -7 19 -10 17 C-12.23495494 13.64756759 -12.67920629 11.87083725 -12.43359375 7.93359375 C-11.75194607 4.89381354 -10.19767713 3.13303956 -8 1 C-5.13391871 -0.43304064 -3.18699217 -0.30644155 0 0 Z M-7.875 4 C-9.75321874 7.33905554 -9.30079454 10.20998874 -9 14 C-6.39295102 16.60704898 -4.52661759 16.23905333 -0.97265625 16.265625 C1.31952326 16.10382514 1.31952326 16.10382514 4 14 C4.33419015 10.99228865 4.52770924 8.89943617 4 6 C1.78300364 3.2713891 0.41355329 3.05063918 -3.0625 2.625 C-5.91582445 2.81258688 -5.91582445 2.81258688 -7.875 4 Z " fill="#232323" transform="translate(760,770)"/>
<path d="M0 0 C0.99 0 1.98 0 3 0 C3 6.27 3 12.54 3 19 C-2 18 -2 18 -4.01953125 15.27734375 C-4.90705078 13.62412109 -4.90705078 13.62412109 -5.8125 11.9375 C-6.41707031 10.83277344 -7.02164063 9.72804688 -7.64453125 8.58984375 C-8.09183594 7.73519531 -8.53914062 6.88054688 -9 6 C-9.33 10.29 -9.66 14.58 -10 19 C-10.66 19 -11.32 19 -12 19 C-12 13.06 -12 7.12 -12 1 C-7.44475412 2.13881147 -7.16581032 2.65647442 -4.8125 6.4375 C-4.04873047 7.64212891 -4.04873047 7.64212891 -3.26953125 8.87109375 C-2 11 -2 11 -1 13 C-0.67 8.71 -0.34 4.42 0 0 Z " fill="#313131" transform="translate(538,770)"/>
<path d="M0 0 C0.99 0.66 1.98 1.32 3 2 C3.3984375 4.09375 3.3984375 4.09375 3.375 6.5 C3.38273438 7.2940625 3.39046875 8.088125 3.3984375 8.90625 C3.26695312 9.5971875 3.13546875 10.288125 3 11 C-1.19882375 13.79921583 -3.12127113 12.86558093 -8 12 C-9 11 -9 11 -9.25 7.125 C-9.20377533 4.54566338 -9.15273457 3.27152813 -7.875 1 C-5.13335219 -0.46221217 -3.05603838 -0.31833733 0 0 Z " fill="#D2D2D2" transform="translate(510,773)"/>
<path d="M0 0 C9.24 0 18.48 0 28 0 C28 0.33 28 0.66 28 1 C19.09 1 10.18 1 1 1 C1 3.97 1 6.94 1 10 C5.29 10 9.58 10 14 10 C14 15 14 15 12.625 16.8125 C11 18 11 18 9 18 C9 18.66 9 19.32 9 20 C6.35541621 21.32229189 4.32238699 21.09677194 1.375 21.0625 C0.37210937 21.05347656 -0.63078125 21.04445313 -1.6640625 21.03515625 C-2.43492187 21.02355469 -3.20578125 21.01195312 -4 21 C-4 20.67 -4 20.34 -4 20 C-2.02 19.67 -0.04 19.34 2 19 C1.34 18.34 0.68 17.68 0 17 C0.33 15.68 0.66 14.36 1 13 C4.96 13 8.92 13 13 13 C13 12.34 13 11.68 13 11 C8.71 11 4.42 11 0 11 C0 7.37 0 3.74 0 0 Z " fill="#A7A7A7" transform="translate(463,705)"/>
<path d="M0 0 C2.8797993 2.02198674 4.64956037 3.45068794 5.4453125 6.96875 C5.64499703 10.53644697 5.30996991 12.59703912 3.125 15.4375 C-0.26569826 17.93066048 -2.75941042 18.42115832 -7.0234375 18.328125 C-9 18 -9 18 -11.5 16.125 C-13.56314744 11.82677617 -13.88327664 7.69489387 -13 3 C-9.43445913 -1.63624265 -5.34980635 -1.29133257 0 0 Z M-9.9375 3 C-11.74093769 6.39470625 -11.36262436 9.19244425 -11 13 C-7.21722246 15.52185169 -4.44203329 15.72956472 0 15 C2.25463249 13.5771736 2.25463249 13.5771736 3 11 C3.00668717 7.37942732 3.00668717 7.37942732 2 4 C-1.86756293 1.42162471 -5.65389181 0.78910545 -9.9375 3 Z " fill="#212121" transform="translate(669,771)"/>
<path d="M0 0 C3.5625 0.3125 3.5625 0.3125 5.5 1.4375 C7.08475401 4.23412472 7.02197423 6.1618196 6.5625 9.3125 C4.3418949 11.779839 3.12680797 12.27402446 -0.1875 12.5 C-0.93 12.438125 -1.6725 12.37625 -2.4375 12.3125 C-2.7675 11.3225 -3.0975 10.3325 -3.4375 9.3125 C-4.0975 9.3125 -4.7575 9.3125 -5.4375 9.3125 C-5.5625 5.9375 -5.5625 5.9375 -5.4375 2.3125 C-3.4375 0.3125 -3.4375 0.3125 0 0 Z " fill="#0C0C0C" transform="translate(506.4375,396.6875)"/>
<path d="M0 0 C1.98362069 2.91708924 1.9876191 4.12380904 1.625 7.75 C1.41875 8.8225 1.2125 9.895 1 11 C-5.22680412 12.31720856 -5.22680412 12.31720856 -8.4375 11 C-10.7346014 8.05971021 -10.27274472 5.61386759 -10 2 C-6.5980513 -0.09350689 -3.94727588 -0.17942163 0 0 Z " fill="#161616" transform="translate(482,397)"/>
<path d="M0 0 C2.10388569 -0.05402274 4.20816714 -0.09280256 6.3125 -0.125 C8.07013672 -0.15980469 8.07013672 -0.15980469 9.86328125 -0.1953125 C13 0 13 0 16 2 C15.67 2.66 15.34 3.32 15 4 C14.01 4 13.02 4 12 4 C12 4.99 12 5.98 12 7 C9.69 7 7.38 7 5 7 C5 7.66 5 8.32 5 9 C7.97 9.495 7.97 9.495 11 10 C11 10.33 11 10.66 11 11 C7.37 11 3.74 11 0 11 C0 7.37 0 3.74 0 0 Z " fill="#111111" transform="translate(534,499)"/>
<path d="M0 0 C1.125 3.75 1.125 3.75 0 6 C-1.32 6 -2.64 6 -4 6 C-4 6.99 -4 7.98 -4 9 C-2.02 9 -0.04 9 2 9 C1.34 10.32 0.68 11.64 0 13 C-2.64 13 -5.28 13 -8 13 C-8 12.34 -8 11.68 -8 11 C-8.66 11 -9.32 11 -10 11 C-10.36010591 3.67784643 -10.36010591 3.67784643 -8.9375 1 C-5.97912322 -0.52690415 -3.26283401 -0.18468872 0 0 Z " fill="#D2D2D2" transform="translate(424,773)"/>
<path d="M0 0 C1.51400391 0.01740234 1.51400391 0.01740234 3.05859375 0.03515625 C4.07050781 0.04417969 5.08242188 0.05320312 6.125 0.0625 C7.29869141 0.07990234 7.29869141 0.07990234 8.49609375 0.09765625 C8.49609375 1.08765625 8.49609375 2.07765625 8.49609375 3.09765625 C5.52609375 3.09765625 2.55609375 3.09765625 -0.50390625 3.09765625 C-0.50390625 5.07765625 -0.50390625 7.05765625 -0.50390625 9.09765625 C1.80609375 9.09765625 4.11609375 9.09765625 6.49609375 9.09765625 C6.49609375 9.75765625 6.49609375 10.41765625 6.49609375 11.09765625 C4.18609375 11.09765625 1.87609375 11.09765625 -0.50390625 11.09765625 C-0.50390625 13.07765625 -0.50390625 15.05765625 -0.50390625 17.09765625 C2.13609375 17.09765625 4.77609375 17.09765625 7.49609375 17.09765625 C7.49609375 17.75765625 7.49609375 18.41765625 7.49609375 19.09765625 C3.86609375 19.09765625 0.23609375 19.09765625 -3.50390625 19.09765625 C-3.53074612 16.11843032 -3.55066662 13.1394433 -3.56640625 10.16015625 C-3.57478516 9.31001953 -3.58316406 8.45988281 -3.59179688 7.58398438 C-3.59501953 6.77509766 -3.59824219 5.96621094 -3.6015625 5.1328125 C-3.60679932 4.38394775 -3.61203613 3.63508301 -3.61743164 2.86352539 C-3.4339598 0.00965048 -2.85703563 0.11142885 0 0 Z " fill="#2E2E2E" transform="translate(578.50390625,769.90234375)"/>
<path d="M0 0 C2.4375 1.4375 2.4375 1.4375 4 3 C4 3.66 4 4.32 4 5 C0.125 4.125 0.125 4.125 -1 3 C-4.45821402 2.74996036 -4.45821402 2.74996036 -8 3 C-10.29575603 5.29575603 -10.32339599 6.00842525 -10.625 9.125 C-10.74875 10.40375 -10.8725 11.6825 -11 13 C-10.01 13.33 -9.02 13.66 -8 14 C-8 14.66 -8 15.32 -8 16 C-4.04 15.505 -4.04 15.505 0 15 C0 14.34 0 13.68 0 13 C0.99 13 1.98 13 3 13 C1.25 16.875 1.25 16.875 -1 18 C-7.97142857 18.68571429 -7.97142857 18.68571429 -12 16 C-14.22265047 12.6660243 -14.73748232 10.85947334 -14.5 6.93359375 C-13.65163253 3.65279768 -11.5881706 2.03356261 -9 0 C-5.84876177 -1.57561912 -3.37430208 -0.69813146 0 0 Z " fill="#2F2F2F" transform="translate(485,771)"/>
<path d="M0 0 C3.63 0 7.26 0 11 0 C11 0.99 11 1.98 11 3 C8.36 3 5.72 3 3 3 C3 4.65 3 6.3 3 8 C5.31 8 7.62 8 10 8 C10 8.99 10 9.98 10 11 C7.36 11 4.72 11 2 11 C2 12.98 2 14.96 2 17 C4.64 17 7.28 17 10 17 C10 17.66 10 18.32 10 19 C6.7 19 3.4 19 0 19 C0 12.73 0 6.46 0 0 Z " fill="#2F2F2F" transform="translate(438,770)"/>
<path d="M0 0 C3.40110553 0.34011055 4.73341421 0.92091421 7.125 3.3125 C7.125 3.9725 7.125 4.6325 7.125 5.3125 C4.155 4.9825 1.185 4.6525 -1.875 4.3125 C-1.875 5.3025 -1.875 6.2925 -1.875 7.3125 C-1.02615234 7.72822266 -1.02615234 7.72822266 -0.16015625 8.15234375 C0.57332031 8.51457031 1.30679688 8.87679687 2.0625 9.25 C3.15884766 9.78947266 3.15884766 9.78947266 4.27734375 10.33984375 C6.125 11.3125 6.125 11.3125 7.125 12.3125 C7.3125 14.75 7.3125 14.75 7.125 17.3125 C5.125 19.3125 5.125 19.3125 3.25 19.578125 C2.54875 19.57296875 1.8475 19.5678125 1.125 19.5625 C0.073125 19.57023438 0.073125 19.57023438 -1 19.578125 C-2.875 19.3125 -2.875 19.3125 -4.875 17.3125 C-4.875 16.3225 -4.875 15.3325 -4.875 14.3125 C-4.33875 14.621875 -3.8025 14.93125 -3.25 15.25 C-0.4765043 16.49077439 2.12542837 16.9034675 5.125 17.3125 C4.795 15.9925 4.465 14.6725 4.125 13.3125 C3.01125 13.044375 1.8975 12.77625 0.75 12.5 C-2.875 11.3125 -2.875 11.3125 -4.875 8.3125 C-5.125 5.25 -5.125 5.25 -4.875 2.3125 C-2.875 0.3125 -2.875 0.3125 0 0 Z " fill="#1B1B1B" transform="translate(623.875,769.6875)"/>
<path d="M0 0 C0.33 0 0.66 0 1 0 C1 17.49 1 34.98 1 53 C1.66 53 2.32 53 3 53 C2.67 53.99 2.34 54.98 2 56 C1.34 55.67 0.68 55.34 0 55 C0 55.66 0 56.32 0 57 C-4.29 57 -8.58 57 -13 57 C-13 56.67 -13 56.34 -13 56 C-7.555 55.505 -7.555 55.505 -2 55 C-1.34 36.85 -0.68 18.7 0 0 Z " fill="#E0E0E0" transform="translate(724,683)"/>
<path d="M0 0 C0.99 0.33 1.98 0.66 3 1 C4.16796875 3.94140625 4.16796875 3.94140625 5.1875 7.5625 C5.53167969 8.76003906 5.87585938 9.95757813 6.23046875 11.19140625 C6.48441406 12.11824219 6.73835937 13.04507813 7 14 C8.8272911 11.25906335 9.93698178 8.86174676 11.125 5.8125 C11.47820313 4.91144531 11.83140625 4.01039063 12.1953125 3.08203125 C12.46085938 2.39496094 12.72640625 1.70789063 13 1 C13.99 1.33 14.98 1.66 16 2 C15.37691903 3.8964649 14.75145015 5.79214535 14.125 7.6875 C13.77695312 8.74324219 13.42890625 9.79898438 13.0703125 10.88671875 C12.12668634 13.63149994 11.10508711 16.31692815 10 19 C8.35 19 6.7 19 5 19 C4.3516711 16.77155786 3.70643631 14.5422154 3.0625 12.3125 C2.70285156 11.07113281 2.34320312 9.82976563 1.97265625 8.55078125 C1.19273569 5.70360138 0.52712784 2.90197746 0 0 Z " fill="#313131" transform="translate(550,770)"/>
<path d="M0 0 C0.99 0 1.98 0 3 0 C2.67 3.3 2.34 6.6 2 10 C0.68 10.33 -0.64 10.66 -2 11 C-2.66 11.66 -3.32 12.32 -4 13 C-4 11.68 -4 10.36 -4 9 C-4.99 10.485 -4.99 10.485 -6 12 C-6.33 11.01 -6.66 10.02 -7 9 C-7.33 9.33 -7.66 9.66 -8 10 C-9.99958364 10.04080783 -12.00045254 10.04254356 -14 10 C-14 8.68 -14 7.36 -14 6 C-11.36 6 -8.72 6 -6 6 C-6 5.01 -6 4.02 -6 3 C-4.0625 2.4375 -4.0625 2.4375 -2 2 C-1.67 2.33 -1.34 2.66 -1 3 C-0.67 2.01 -0.34 1.02 0 0 Z " fill="#DEDFDE" transform="translate(593,768)"/>
<path d="M0 0 C3.63 0 7.26 0 11 0 C11 0.99 11 1.98 11 3 C8.36 3 5.72 3 3 3 C3 4.98 3 6.96 3 9 C4.98 9 6.96 9 9 9 C9 9.66 9 10.32 9 11 C7.02 11 5.04 11 3 11 C3 13.64 3 16.28 3 19 C2.01 19 1.02 19 0 19 C0 12.73 0 6.46 0 0 Z " fill="#2D2D2D" transform="translate(728,770)"/>
<path d="M0 0 C2 2 2 2 2.125 5.625 C2.08375 6.73875 2.0425 7.8525 2 9 C4.64 8.67 7.28 8.34 10 8 C10 6.35 10 4.7 10 3 C11.0625 4.8125 11.0625 4.8125 12 7 C11.67 7.99 11.34 8.98 11 10 C10.01 10 9.02 10 8 10 C8.99 11.1446875 8.99 11.1446875 10 12.3125 C12 15 12 15 12 18 C11.01 18 10.02 18 9 18 C7.61876037 16.03277992 6.28511874 14.03131672 5 12 C4.34 11.67 3.68 11.34 3 11 C3 13.31 3 15.62 3 18 C2.01 18 1.02 18 0 18 C0 12.06 0 6.12 0 0 Z " fill="#191A19" transform="translate(596,771)"/>
<path d="M0 0 C1.32 0 2.64 0 4 0 C4.45375 1.216875 4.9075 2.43375 5.375 3.6875 C5.64957031 4.41453125 5.92414063 5.1415625 6.20703125 5.890625 C6.83774046 7.56837364 7.45284608 9.25198622 8.0625 10.9375 C8.81648385 13.17040785 8.81648385 13.17040785 11 14 C10.67 15.32 10.34 16.64 10 18 C9.34 18 8.68 18 8 18 C6.35 14.04 4.7 10.08 3 6 C2.67 9.63 2.34 13.26 2 17 C1.34 17 0.68 17 0 17 C0 11.39 0 5.78 0 0 Z " fill="#151515" transform="translate(358,771)"/>
<path d="M0 0 C4.05731409 0.71180949 6.33973328 2.10966987 9.5625 4.625 C8.9025 7.265 8.2425 9.905 7.5625 12.625 C7.2325 12.625 6.9025 12.625 6.5625 12.625 C6.376875 10.9234375 6.376875 10.9234375 6.1875 9.1875 C5.98125 8.011875 5.775 6.83625 5.5625 5.625 C3.27544169 4.48147084 1.96985238 4.52165561 -0.5625 4.5625 C-1.84125 4.583125 -3.12 4.60375 -4.4375 4.625 C-4.540625 5.90375 -4.64375 7.1825 -4.75 8.5 C-4.92578125 10.6796875 -4.92578125 10.6796875 -5.4375 12.625 C-6.4275 13.285 -7.4175 13.945 -8.4375 14.625 C-9.10714286 6.85714286 -9.10714286 6.85714286 -6.375 3.125 C-3.4375 0.625 -3.4375 0.625 0 0 Z " fill="#464747" transform="translate(506.4375,769.375)"/>
<path d="M0 0 C0.99 0 1.98 0 3 0 C3 6.27 3 12.54 3 19 C1.68 19 0.36 19 -1 19 C-1.99 17.02 -2.98 15.04 -4 13 C-2.68 13.33 -1.36 13.66 0 14 C0 9.38 0 4.76 0 0 Z " fill="#272727" transform="translate(697,770)"/>
<path d="M0 0 C1.86328125 0.2421875 1.86328125 0.2421875 4 1 C7.2384422 5.7908383 8.51643524 11.31811402 9 17 C8.01 16.67 7.02 16.34 6 16 C6 15.01 6 14.02 6 13 C2.7 13 -0.6 13 -4 13 C-3.67 12.01 -3.34 11.02 -3 10 C-0.69 10.33 1.62 10.66 4 11 C3.71758359 9.53984709 3.42373386 8.08190207 3.125 6.625 C2.88136719 5.40683594 2.88136719 5.40683594 2.6328125 4.1640625 C2.13341068 1.81326077 2.13341068 1.81326077 0 0 Z " fill="#191919" transform="translate(393,772)"/>
<path d="M0 0 C2.19702465 0.37879735 3.83875922 0.90210381 5.75 2.0625 C7.77650597 5.20358426 7.61477032 8.44005096 7 12 C5.5625 14.5625 5.5625 14.5625 3 16 C-0.07496668 16.01587762 -2.98747893 15.592205 -6 15 C-6 14.67 -6 14.34 -6 14 C-4.906875 13.855625 -3.81375 13.71125 -2.6875 13.5625 C0.93122987 13.11711896 0.93122987 13.11711896 4 12 C3.896875 10.72125 3.79375 9.4425 3.6875 8.125 C3.62949219 7.40570312 3.57148437 6.68640625 3.51171875 5.9453125 C3.12606964 3.60480784 3.12606964 3.60480784 0 2 C0 1.34 0 0.68 0 0 Z " fill="#2B2B2B" transform="translate(760,772)"/>
<path d="M0 0 C1.19882812 0.00966797 2.39765625 0.01933594 3.6328125 0.02929688 C5.4890625 0.06700195 5.4890625 0.06700195 7.3828125 0.10546875 C8.64351563 0.11900391 9.90421875 0.13253906 11.203125 0.14648438 C14.30512704 0.1817344 17.40624784 0.23101371 20.5078125 0.29296875 C20.5078125 0.62296875 20.5078125 0.95296875 20.5078125 1.29296875 C19.34209717 1.33055298 19.34209717 1.33055298 18.15283203 1.36889648 C14.64598181 1.48463671 11.13941505 1.60746227 7.6328125 1.73046875 C6.40949219 1.76978516 5.18617188 1.80910156 3.92578125 1.84960938 C2.17587891 1.91245117 2.17587891 1.91245117 0.390625 1.9765625 C-0.68815918 2.01322021 -1.76694336 2.04987793 -2.87841797 2.08764648 C-5.47288286 2.12673518 -5.47288286 2.12673518 -7.4921875 3.29296875 C-8.21378174 4.93660009 -8.88570171 6.60347261 -9.4921875 8.29296875 C-10.1521875 8.29296875 -10.8121875 8.29296875 -11.4921875 8.29296875 C-12.1521875 7.63296875 -12.8121875 6.97296875 -13.4921875 6.29296875 C-15.4721875 7.28296875 -15.4721875 7.28296875 -17.4921875 8.29296875 C-12.24546801 2.58330343 -7.84479982 -0.11206857 0 0 Z " fill="#1F1F1F" transform="translate(459.4921875,377.70703125)"/>
<path d="M0 0 C1.485 0.99 1.485 0.99 3 2 C3 3.32 3 4.64 3 6 C4.2375 5.979375 5.475 5.95875 6.75 5.9375 C9.6640825 5.93233319 12.20953327 6.06984442 15 7 C15 8.32 15 9.64 15 11 C14.34 10.67 13.68 10.34 13 10 C13.33 9.34 13.66 8.68 14 8 C13.01 8 12.02 8 11 8 C11 8.66 11 9.32 11 10 C8.20129973 11.39935013 6.09501208 11.25265405 3 11 C1.125 10 1.125 10 0 8 C-0.24131207 5.28121737 -0.1347929 2.7407889 0 0 Z " fill="#C1C1C1" transform="translate(474,776)"/>
<path d="M0 0 C2.875 1.875 2.875 1.875 5 4 C5 4.66 5 5.32 5 6 C4.319375 5.67 3.63875 5.34 2.9375 5 C-0.61860562 3.78941085 -3.26715559 3.58523951 -7 4 C-9.87637713 6.58873942 -10.47765853 9.23914141 -11 13 C-11.33 13 -11.66 13 -12 13 C-12.35467815 9.92612269 -12.5059803 7.06223493 -12 4 C-8.29322219 0.3814788 -5.12865807 -0.87296308 0 0 Z " fill="#323232" transform="translate(424,770)"/>
<path d="M0 0 C2 4 2 4 3 7 C3.66 7 4.32 7 5 7 C5 7.99 5 8.98 5 10 C5.99 10.33 6.98 10.66 8 11 C8.66 11.66 9.32 12.32 10 13 C6.04 13 2.08 13 -2 13 C-2 11.68 -2 10.36 -2 9 C-1.34 9 -0.68 9 0 9 C0 6.03 0 3.06 0 0 Z " fill="#DDDDDD" transform="translate(458,712)"/>
<path d="M0 0 C0.99 0 1.98 0 3 0 C3 6.27 3 12.54 3 19 C2.01 19 1.02 19 0 19 C0 12.73 0 6.46 0 0 Z " fill="#2B2B2B" transform="translate(330,770)"/>
<path d="M0 0 C5.28 0 10.56 0 16 0 C15 2 15 2 12.96875 2.74609375 C11.32359118 3.20684234 9.67775485 3.66517864 8.03125 4.12109375 C7.3609375 4.41113281 6.690625 4.70117188 6 5 C5.67 5.99 5.34 6.98 5 8 C4.34 8.66 3.68 9.32 3 10 C2.01 6.7 1.02 3.4 0 0 Z " fill="#141414" transform="translate(735,682)"/>
<path d="M0 0 C1.32 0.66 2.64 1.32 4 2 C3.67 4.31 3.34 6.62 3 9 C-3.75 10.125 -3.75 10.125 -6 9 C-6 8.34 -6 7.68 -6 7 C-5.34 7 -4.68 7 -4 7 C-4 6.34 -4 5.68 -4 5 C-3.34 5 -2.68 5 -2 5 C-1.34 3.35 -0.68 1.7 0 0 Z " fill="#0D0D0D" transform="translate(480,399)"/>
<path d="M0 0 C0.99 0 1.98 0 3 0 C3 5.94 3 11.88 3 18 C2.01 18 1.02 18 0 18 C0 12.06 0 6.12 0 0 Z " fill="#2A2C2B" transform="translate(642,771)"/>
<path d="M0 0 C2.4375 2.0625 2.4375 2.0625 4 4 C3.34 4.66 2.68 5.32 2 6 C1.649375 5.505 1.29875 5.01 0.9375 4.5 C-2.05072823 2.18653299 -4.34503841 2.5431298 -8 3 C-9.84315671 4.9004467 -9.84315671 4.9004467 -11 7 C-11.66 7 -12.32 7 -13 7 C-12.73136414 3.68682445 -12.40940132 2.36123646 -9.875 0.125 C-6.09009484 -1.35604984 -3.89942866 -1.06348054 0 0 Z " fill="#272727" transform="translate(669,771)"/>
<path d="M0 0 C2.875 -0.125 2.875 -0.125 6 0 C6.66 0.66 7.32 1.32 8 2 C7.46428571 5.53571429 7.46428571 5.53571429 6 7 C4.00041636 7.04080783 1.99954746 7.04254356 0 7 C0 4.69 0 2.38 0 0 Z " fill="#C3C4C4" transform="translate(779,773)"/>
<path d="M0 0 C0.33 1.32 0.66 2.64 1 4 C0.01 4.495 0.01 4.495 -1 5 C-1 5.66 -1 6.32 -1 7 C-3.10388569 7.05402274 -5.20816714 7.09280256 -7.3125 7.125 C-9.07013672 7.15980469 -9.07013672 7.15980469 -10.86328125 7.1953125 C-14 7 -14 7 -17 5 C-16.34 4.01 -15.68 3.02 -15 2 C-14.34 2.66 -13.68 3.32 -13 4 C-6.87827083 4.40680619 -6.87827083 4.40680619 -1 3 C-0.67 2.01 -0.34 1.02 0 0 Z " fill="#C4C4C4" transform="translate(673,784)"/>
<path d="M0 0 C2.5426272 2.5426272 4.01460061 4.43753048 5.75 7.5 C6.42289063 8.66015625 6.42289063 8.66015625 7.109375 9.84375 C8 12 8 12 7 15 C6.01 14.67 5.02 14.34 4 14 C4.66 14 5.32 14 6 14 C6 12.68 6 11.36 6 10 C4.05925139 10.27617533 4.05925139 10.27617533 2 11 C1.34 11.99 0.68 12.98 0 14 C0 9.38 0 4.76 0 0 Z " fill="#B4B4B4" transform="translate(528,775)"/>
<path d="M0 0 C0.99 0.33 1.98 0.66 3 1 C2.37879354 2.91789954 1.75288109 4.83427522 1.125 6.75 C0.77695312 7.81734375 0.42890625 8.8846875 0.0703125 9.984375 C-0.8067422 12.45549261 -1.75926205 14.6973692 -3 17 C-4.32 17 -5.64 17 -7 17 C-7 16.34 -7 15.68 -7 15 C-6.01 15 -5.02 15 -4 15 C-3.896875 13.824375 -3.79375 12.64875 -3.6875 11.4375 C-3.17085042 7.17514097 -1.8491639 3.85912466 0 0 Z " fill="#1F1F1F" transform="translate(563,771)"/>
<path d="M0 0 C1.4370809 -0.05422947 2.87475462 -0.09289723 4.3125 -0.125 C5.11300781 -0.14820313 5.91351562 -0.17140625 6.73828125 -0.1953125 C9 0 9 0 12 2 C12 3.32 12 4.64 12 6 C9.04876854 6.35133708 6.8502099 6.52850886 4.265625 4.921875 C2.77831883 3.6895356 1.38214043 2.34923232 0 1 C0 0.67 0 0.34 0 0 Z " fill="#C0C0BF" transform="translate(617,781)"/>
<path d="M0 0 C1.32 0.33 2.64 0.66 4 1 C3.84660156 1.52078125 3.69320312 2.0415625 3.53515625 2.578125 C2.86017489 5.63278515 2.65588882 8.63015971 2.4375 11.75 C2.35371094 12.92046875 2.26992188 14.0909375 2.18359375 15.296875 C2.12300781 16.18890625 2.06242188 17.0809375 2 18 C1.34 18 0.68 18 0 18 C0 12.06 0 6.12 0 0 Z " fill="#0F1010" transform="translate(526,771)"/>
<path d="M0 0 C2.31 0 4.62 0 7 0 C6.03320312 0.24363281 6.03320312 0.24363281 5.046875 0.4921875 C2.5663746 1.95214403 2.5663746 1.95214403 2.390625 5.6953125 C2.32414708 7.17112237 2.27806121 8.64796017 2.25 10.125 C2.22035156 10.87910156 2.19070313 11.63320313 2.16015625 12.41015625 C2.08942068 14.27285953 2.04245017 16.13643755 2 18 C1.34 18 0.68 18 0 18 C0 12.06 0 6.12 0 0 Z " fill="#0B0C0C" transform="translate(777,771)"/>
<path d="M0 0 C1.4540625 0.0309375 1.4540625 0.0309375 2.9375 0.0625 C2.9375 1.0525 2.9375 2.0425 2.9375 3.0625 C3.5975 3.7225 4.2575 4.3825 4.9375 5.0625 C4.6075 5.7225 4.2775 6.3825 3.9375 7.0625 C1.6275 6.4025 -0.6825 5.7425 -3.0625 5.0625 C-3.625 3.125 -3.625 3.125 -4.0625 1.0625 C-3.0625 0.0625 -3.0625 0.0625 0 0 Z " fill="#CACACA" transform="translate(625.0625,772.9375)"/>
<path d="M0 0 C0.89203125 0.00902344 1.7840625 0.01804687 2.703125 0.02734375 C3.37859375 0.03894531 4.0540625 0.05054688 4.75 0.0625 C4.75 0.7225 4.75 1.3825 4.75 2.0625 C4.09 2.0625 3.43 2.0625 2.75 2.0625 C2.75 2.7225 2.75 3.3825 2.75 4.0625 C1.1 4.0625 -0.55 4.0625 -2.25 4.0625 C-2.58 5.0525 -2.91 6.0425 -3.25 7.0625 C-5.25 5.0625 -7.25 3.0625 -9.25 1.0625 C-6.09493858 0.12630187 -3.28413498 -0.0432123 0 0 Z " fill="#CACACA" transform="translate(676.25,768.9375)"/>
<path d="M0 0 C1.33332095 2.6666419 0.67102033 4.16680303 0 7 C-0.66 7 -1.32 7 -2 7 C-1.67 9.31 -1.34 11.62 -1 14 C-0.67 12.35 -0.34 10.7 0 9 C0.33 9 0.66 9 1 9 C1.33 11.97 1.66 14.94 2 18 C1.34 18 0.68 18 0 18 C-0.33 18.66 -0.66 19.32 -1 20 C-3.6384227 15.43794641 -3.55879686 11.15064928 -3 6 C-1.5 2.375 -1.5 2.375 0 0 Z " fill="#CBCBCB" transform="translate(549,698)"/>
<path d="M0 0 C1.32 0.33 2.64 0.66 4 1 C4 4.63 4 8.26 4 12 C3.67 12 3.34 12 3 12 C3 9.36 3 6.72 3 4 C2.01 4.495 2.01 4.495 1 5 C1.33 6.65 1.66 8.3 2 10 C1.34 10 0.68 10 0 10 C-0.33 8.35 -0.66 6.7 -1 5 C-1.66 5 -2.32 5 -3 5 C-3.33 5.99 -3.66 6.98 -4 8 C-3.67 6.35 -3.34 4.7 -3 3 C-2.01 3 -1.02 3 0 3 C0 2.01 0 1.02 0 0 Z " fill="#CCCCCC" transform="translate(530,498)"/>
<path d="M0 0 C1.98 0 3.96 0 6 0 C6.04254356 1.99954746 6.04080783 4.00041636 6 6 C5 7 5 7 2.4375 7.0625 C1.2309375 7.0315625 1.2309375 7.0315625 0 7 C0 4.69 0 2.38 0 0 Z " fill="#BFC1C0" transform="translate(599,773)"/>
<path d="M0 0 C1.98 0.99 1.98 0.99 4 2 C4 2.66 4 3.32 4 4 C6.64 3.67 9.28 3.34 12 3 C12 2.34 12 1.68 12 1 C12.99 1 13.98 1 15 1 C13.25 4.875 13.25 4.875 11 6 C3.70572019 6.46312888 3.70572019 6.46312888 1 4.6875 C0 3 0 3 0 0 Z " fill="#1E1E1E" transform="translate(473,783)"/>
<path d="M0 0 C1.32 0 2.64 0 4 0 C3.53199289 4.05606165 3.12046792 7.46588679 1 11 C0.34 10.67 -0.32 10.34 -1 10 C-1.86159454 6.76902047 -2.30597523 4.77513726 -1.0625 1.625 C-0.5365625 0.820625 -0.5365625 0.820625 0 0 Z " fill="#D1D1D1" transform="translate(367,774)"/>
<path d="M0 0 C0.33 0 0.66 0 1 0 C1 3.96 1 7.92 1 12 C1.99 12.33 2.98 12.66 4 13 C2.68 13 1.36 13 0 13 C0 12.34 0 11.68 0 11 C-0.99 11 -1.98 11 -3 11 C-2.53199289 6.94393835 -2.12046792 3.53411321 0 0 Z " fill="#B4B4B4" transform="translate(373,777)"/>
<path d="M0 0 C4.24480464 -0.33292585 6.35542625 -0.43885872 9.9375 2 C10.618125 2.66 11.29875 3.32 12 4 C11.67 4.66 11.34 5.32 11 6 C10.01 6 9.02 6 8 6 C7.67 6.66 7.34 7.32 7 8 C6.34 7.67 5.68 7.34 5 7 C5 6.34 5 5.68 5 5 C4.34 4.67 3.68 4.34 3 4 C3.33 3.34 3.66 2.68 4 2 C2.35 2 0.7 2 -1 2 C-0.67 1.34 -0.34 0.68 0 0 Z " fill="#C9C9C9" transform="translate(477,773)"/>
<path d="M0 0 C0.33 0.66 0.66 1.32 1 2 C0.22265625 4.1640625 0.22265625 4.1640625 -0.9375 6.625 C-1.31777344 7.44226563 -1.69804688 8.25953125 -2.08984375 9.1015625 C-2.39019531 9.72804688 -2.69054687 10.35453125 -3 11 C-3.66 10.67 -4.32 10.34 -5 10 C-5.40729228 7.67843403 -5.74438677 5.3431213 -6 3 C-4.02 2.01 -2.04 1.02 0 0 Z " fill="#C5C5C5" transform="translate(561,774)"/>
<path d="M0 0 C1.50559539 1.96382007 2.89131683 3.78263366 4 6 C6.35599235 6.46751788 6.35599235 6.46751788 9.0625 6.625 C9.98160156 6.69976563 10.90070313 6.77453125 11.84765625 6.8515625 C12.55792969 6.90054688 13.26820313 6.94953125 14 7 C14.33 5.68 14.66 4.36 15 3 C15.33 3.66 15.66 4.32 16 5 C15.67 5.99 15.34 6.98 15 8 C11.04 8.66 7.08 9.32 3 10 C0.96564469 6.27034861 0 4.33094958 0 0 Z " fill="#959595" transform="translate(380,722)"/>
<path d="M0 0 C0.66 0.33 1.32 0.66 2 1 C-1.75 4.875 -1.75 4.875 -4 6 C-4.268125 6.66 -4.53625 7.32 -4.8125 8 C-6 10 -6 10 -8.625 10.75 C-9.40875 10.8325 -10.1925 10.915 -11 11 C-10.34 9.68 -9.68 8.36 -9 7 C-8.34 7 -7.68 7 -7 7 C-6.773125 6.401875 -6.54625 5.80375 -6.3125 5.1875 C-4.6388703 2.39811716 -2.91182274 1.3831158 0 0 Z " fill="#1F1F1F" transform="translate(548,683)"/>
<path d="M0 0 C1.32 0 2.64 0 4 0 C4.33 2.97 4.66 5.94 5 9 C4.01 9.33 3.02 9.66 2 10 C1.34 9.67 0.68 9.34 0 9 C0 6.03 0 3.06 0 0 Z " fill="#DFDFDF" transform="translate(525,503)"/>
<path d="M0 0 C1.32 0 2.64 0 4 0 C4.66 1.98 5.32 3.96 6 6 C3.64561267 7.42944945 2.51967567 8.08661261 -0.25 7.625 C-0.8275 7.41875 -1.405 7.2125 -2 7 C-1.34 7 -0.68 7 0 7 C0 4.69 0 2.38 0 0 Z " fill="#BBBCBC" transform="translate(779,782)"/>
<path d="M0 0 C0.74958984 0.00451172 1.49917969 0.00902344 2.27148438 0.01367188 C4.11852383 0.02543646 5.96552213 0.04337135 7.8125 0.0625 C5.06356582 2.37382358 3.27745815 3.41342452 -0.3125 3.625 C-4.19635386 3.65581253 -4.19635386 3.65581253 -6.1875 6.0625 C-6.8475 5.0725 -7.5075 4.0825 -8.1875 3.0625 C-9.1775 2.4025 -10.1675 1.7425 -11.1875 1.0625 C-7.42449626 -0.19183458 -3.91539091 -0.04445422 0 0 Z " fill="#C4C4C4" transform="translate(764.1875,737.9375)"/>
<path d="M0 0 C0.33 0 0.66 0 1 0 C1 1.65 1 3.3 1 5 C5.29 5 9.58 5 14 5 C14 5.66 14 6.32 14 7 C7.565 7.495 7.565 7.495 1 8 C-1 4 -1 4 -0.625 1.75 C-0.41875 1.1725 -0.2125 0.595 0 0 Z " fill="#DDDDDD" transform="translate(462,711)"/>
<path d="M0 0 C3.40110553 0.34011055 4.73341421 0.92091421 7.125 3.3125 C7.125 3.9725 7.125 4.6325 7.125 5.3125 C6.18527344 5.16941406 6.18527344 5.16941406 5.2265625 5.0234375 C4.40929687 4.91257812 3.59203125 4.80171875 2.75 4.6875 C1.93789063 4.57148437 1.12578125 4.45546875 0.2890625 4.3359375 C-0.42507813 4.32820312 -1.13921875 4.32046875 -1.875 4.3125 C-2.535 4.9725 -3.195 5.6325 -3.875 6.3125 C-4.5 4.4375 -4.5 4.4375 -4.875 2.3125 C-2.875 0.3125 -2.875 0.3125 0 0 Z " fill="#2C2C2C" transform="translate(623.875,769.6875)"/>
<path d="M0 0 C5.61 0.33 11.22 0.66 17 1 C17 1.33 17 1.66 17 2 C12.38 2 7.76 2 3 2 C2.34 3.98 1.68 5.96 1 8 C0.01 8.495 0.01 8.495 -1 9 C-1.125 2.25 -1.125 2.25 0 0 Z " fill="#ACACAC" transform="translate(402,680)"/>
<path d="M0 0 C0.33 0 0.66 0 1 0 C1.28875 1.11375 1.5775 2.2275 1.875 3.375 C2.69241329 7.00291092 2.69241329 7.00291092 5 9 C7.32275177 9.40047444 9.65739357 9.7397104 12 10 C11.67 10.66 11.34 11.32 11 12 C3.64321608 12.48241206 3.64321608 12.48241206 1 10.5 C-0.44831655 6.87920862 -0.19435828 3.88716564 0 0 Z " fill="#161616" transform="translate(499,777)"/>
<path d="M0 0 C2.4375 1.4375 2.4375 1.4375 4 3 C4 3.66 4 4.32 4 5 C0.125 4.125 0.125 4.125 -1 3 C-2.34747084 2.76924918 -3.70377565 2.58846937 -5.0625 2.4375 C-6.361875 2.293125 -7.66125 2.14875 -9 2 C-9 1.34 -9 0.68 -9 0 C-5.84876177 -1.57561912 -3.37430208 -0.69813146 0 0 Z " fill="#262626" transform="translate(485,771)"/>
<path d="M0 0 C0.66 0 1.32 0 2 0 C2 3.3 2 6.6 2 10 C1.01 10 0.02 10 -1 10 C-1 9.34 -1 8.68 -1 8 C-1.66 8 -2.32 8 -3 8 C-1.125 2.25 -1.125 2.25 0 0 Z " fill="#DADADA" transform="translate(403,709)"/>
<path d="M0 0 C3.28330144 2.92348758 3.95866933 5.75457495 5 10 C3.0625 10.5625 3.0625 10.5625 1 11 C0 10 0 10 -0.09765625 7.71484375 C-0.08605469 6.79832031 -0.07445312 5.88179687 -0.0625 4.9375 C-0.05347656 4.01839844 -0.04445313 3.09929688 -0.03515625 2.15234375 C-0.02355469 1.44207031 -0.01195312 0.73179687 0 0 Z " fill="#C0C0C0" transform="translate(361,779)"/>
<path d="M0 0 C0.33 0 0.66 0 1 0 C1 4.29 1 8.58 1 13 C-3.5 8.5 -3.5 8.5 -4 4 C-2.68 4 -1.36 4 0 4 C0 2.68 0 1.36 0 0 Z " fill="#C8C8C8" transform="translate(537,771)"/>
<path d="M0 0 C-2.33214148 1.20628008 -4.49642139 2.1654738 -7 3 C-7.103125 4.27875 -7.20625 5.5575 -7.3125 6.875 C-7.48828125 9.0546875 -7.48828125 9.0546875 -8 11 C-8.99 11.66 -9.98 12.32 -11 13 C-11.36601307 5.67973856 -11.36601307 5.67973856 -9.6875 2.5625 C-6.71099957 -0.19351892 -3.86163376 -0.10436848 0 0 Z " fill="#303030" transform="translate(509,771)"/>
<path d="M0 0 C0 0.99 0 1.98 0 3 C-2.64 3.33 -5.28 3.66 -8 4 C-8 4.66 -8 5.32 -8 6 C-8.99 6 -9.98 6 -11 6 C-8.60159776 0.46522561 -5.82500047 -0.25888891 0 0 Z " fill="#2E2E2E" transform="translate(760,770)"/>
<path d="M0 0 C0.70511719 0.16371094 1.41023437 0.32742188 2.13671875 0.49609375 C5.09658688 1.01699824 7.81061273 1.09866732 10.8125 1.0625 C11.78832031 1.05347656 12.76414062 1.04445313 13.76953125 1.03515625 C14.50558594 1.02355469 15.24164062 1.01195312 16 1 C16 1.66 16 2.32 16 3 C13.55028376 4.22485812 11.85765539 4.16722808 9.125 4.1875 C7.82949219 4.20876953 7.82949219 4.20876953 6.5078125 4.23046875 C3.8758712 3.98859252 2.26019456 3.32983541 0 2 C0 1.34 0 0.68 0 0 Z " fill="#DFDFDF" transform="translate(620,721)"/>
<path d="M0 0 C0.804375 0.4640625 0.804375 0.4640625 1.625 0.9375 C4.3984957 2.17827439 7.00042837 2.5909675 10 3 C10.33 2.01 10.66 1.02 11 0 C11.33 0.99 11.66 1.98 12 3 C10 5 10 5 8.125 5.265625 C7.42375 5.26046875 6.7225 5.2553125 6 5.25 C5.29875 5.25515625 4.5975 5.2603125 3.875 5.265625 C2 5 2 5 0 3 C0 2.01 0 1.02 0 0 Z " fill="#252524" transform="translate(619,784)"/>
<path d="M0 0 C2.62386487 3.06117568 3 3.73173127 3 8 C1.35 8 -0.3 8 -2 8 C-1.125 1.125 -1.125 1.125 0 0 Z " fill="#C1C1C1" transform="translate(394,775)"/>
<path d="M0 0 C2.0625 0.4375 2.0625 0.4375 4 1 C3.34 2.65 2.68 4.3 2 6 C1.34 6 0.68 6 0 6 C-0.66 5.34 -1.32 4.68 -2 4 C-3.98 4.99 -3.98 4.99 -6 6 C-4 4 -2 2 0 0 Z " fill="#171717" transform="translate(448,380)"/>
<path d="M0 0 C0.33 0 0.66 0 1 0 C1 5.94 1 11.88 1 18 C-0.32 17.67 -1.64 17.34 -3 17 C-3 16.01 -3 15.02 -3 14 C-2.34 14 -1.68 14 -1 14 C-0.67 9.38 -0.34 4.76 0 0 Z " fill="#101010" transform="translate(539,771)"/>
<path d="M0 0 C1.32 0.99 2.64 1.98 4 3 C3.67 4.98 3.34 6.96 3 9 C2.01 9.33 1.02 9.66 0 10 C0 6.7 0 3.4 0 0 Z " fill="#D3D3D3" transform="translate(687,707)"/>
<path d="M0 0 C3.63 0 7.26 0 11 0 C10.01 0.33 9.02 0.66 8 1 C8 1.66 8 2.32 8 3 C7.01 3 6.02 3 5 3 C4.67 3.66 4.34 4.32 4 5 C2.68 4.34 1.36 3.68 0 3 C0.99 3 1.98 3 3 3 C3 2.34 3 1.68 3 1 C2.01 0.67 1.02 0.34 0 0 Z " fill="#DFDFDF" transform="translate(330,739)"/>
<path d="M0 0 C0.66 0.33 1.32 0.66 2 1 C0.75645114 2.29787866 -0.4951264 3.58806759 -1.75 4.875 C-2.44609375 5.59429688 -3.1421875 6.31359375 -3.859375 7.0546875 C-5.85122217 8.86479679 -7.5427658 9.94848086 -10 11 C-8.55218207 7.55571735 -6.72305391 5.63869038 -3.875 3.25 C-3.15054688 2.63640625 -2.42609375 2.0228125 -1.6796875 1.390625 C-0.84824219 0.70226562 -0.84824219 0.70226562 0 0 Z " fill="#373737" transform="translate(614,683)"/>
<path d="M0 0 C2 1.25 2 1.25 4 3 C4 4.32 4 5.64 4 7 C1.69 6.34 -0.62 5.68 -3 5 C-2 3 -2 3 0 0 Z " fill="#C6C6C6" transform="translate(498,784)"/>
<path d="M0 0 C2.99324263 1.0975223 3.84610901 1.67682892 5.25 4.625 C5.4975 5.40875 5.745 6.1925 6 7 C5.360625 6.814375 4.72125 6.62875 4.0625 6.4375 C3.0415625 6.2209375 3.0415625 6.2209375 2 6 C1.67 6.33 1.34 6.66 1 7 C0.67 7 0.34 7 0 7 C0 4.69 0 2.38 0 0 Z " fill="#C2C2C2" transform="translate(599,782)"/>
<path d="M0 0 C1.98 0 3.96 0 6 0 C6.33 1.32 6.66 2.64 7 4 C4.69 4 2.38 4 0 4 C0 2.68 0 1.36 0 0 Z " fill="#E2E2E1" transform="translate(578,782)"/>
<path d="M0 0 C0.66 0 1.32 0 2 0 C2 0.66 2 1.32 2 2 C2.99 1.67 3.98 1.34 5 1 C6.85776765 4.13498292 7.20140476 6.37471432 7 10 C4.49962266 7.82575883 3.56371414 6.26954202 3 3 C2.34 3 1.68 3 1 3 C0.67 2.01 0.34 1.02 0 0 Z " fill="#CCCCCC" transform="translate(688,771)"/>
<path d="M0 0 C1.65 0 3.3 0 5 0 C4.67 0.66 4.34 1.32 4 2 C4 2.33 4 2.66 4 3 C3.67 3.99 3.34 4.98 3 6 C2.67 5.67 2.34 5.34 2 5 C1.01 6.32 0.02 7.64 -1 9 C-0.67 6.03 -0.34 3.06 0 0 Z " fill="#2B2B2B" transform="translate(392,771)"/>
<path d="M0 0 C1.48828125 1.30078125 1.48828125 1.30078125 3 3 C3.1875 6.1875 3.1875 6.1875 3 9 C3.66 9 4.32 9 5 9 C4.67 9.99 4.34 10.98 4 12 C3.01 11.67 2.02 11.34 1 11 C-0.20272819 8.59454362 -0.10071472 7.05003047 -0.0625 4.375 C-0.05347656 3.55773437 -0.04445313 2.74046875 -0.03515625 1.8984375 C-0.02355469 1.27195312 -0.01195312 0.64546875 0 0 Z " fill="#434343" transform="translate(411,775)"/>
<path d="M0 0 C0 0.33 0 0.66 0 1 C-0.88751953 1.00386719 -0.88751953 1.00386719 -1.79296875 1.0078125 C-6.60261197 1.17053391 -6.60261197 1.17053391 -10.7109375 3.40234375 C-12.23632914 5.21947959 -12.23632914 5.21947959 -14 8 C-14.33 7.34 -14.66 6.68 -15 6 C-10.88012059 -0.59180706 -7.51260325 -0.78772927 0 0 Z " fill="#353535" transform="translate(518,497)"/>
<path d="M0 0 C2.5 2.3125 2.5 2.3125 5 5 C5 5.99 5 6.98 5 8 C4.01 8 3.02 8 2 8 C0.02 4.535 0.02 4.535 -2 1 C-1.34 0.67 -0.68 0.34 0 0 Z " fill="#232423" transform="translate(603,781)"/>
<path d="M0 0 C0.33 0 0.66 0 1 0 C1.66 3.96 2.32 7.92 3 12 C2.01 12.33 1.02 12.66 0 13 C-1.29676812 8.38926889 -0.71109139 4.66159911 0 0 Z " fill="#BDBEBE" transform="translate(516,776)"/>
<path d="M0 0 C1.5625 1.25 1.5625 1.25 3 3 C2.875 5.125 2.875 5.125 2 7 C1.01 7.33 0.02 7.66 -1 8 C-1.66 8.99 -2.32 9.98 -3 11 C-2.32829194 7.1936543 -1.27253436 3.64793184 0 0 Z " fill="#CCCCCC" transform="translate(563,778)"/>
<path d="M0 0 C2.31 0 4.62 0 7 0 C8.125 3.75 8.125 3.75 7 6 C6.01 5.67 5.02 5.34 4 5 C4 4.01 4 3.02 4 2 C2.35 2 0.7 2 -1 2 C-0.67 1.34 -0.34 0.68 0 0 Z " fill="#C5C5C5" transform="translate(417,773)"/>
<path d="M0 0 C0.66 0.33 1.32 0.66 2 1 C1.83628906 1.53109375 1.67257812 2.0621875 1.50390625 2.609375 C0.88643623 5.53876764 0.90498075 8.25822936 0.9375 11.25 C0.95103516 12.86648438 0.95103516 12.86648438 0.96484375 14.515625 C0.97644531 15.33546875 0.98804688 16.1553125 1 17 C0.67 17 0.34 17 0 17 C-0.06058594 16.25234375 -0.12117187 15.5046875 -0.18359375 14.734375 C-0.26738281 13.74953125 -0.35117187 12.7646875 -0.4375 11.75 C-0.51871094 10.77546875 -0.59992187 9.8009375 -0.68359375 8.796875 C-0.95074584 6.43538247 -1.35371968 4.28098935 -2 2 C-1.34 2 -0.68 2 0 2 C0 1.34 0 0.68 0 0 Z " fill="#414141" transform="translate(643,697)"/>
<path d="M0 0 C2.4375 0.6875 2.4375 0.6875 5 2 C5.8125 4.625 5.8125 4.625 6 7 C5.01 6.34 4.02 5.68 3 5 C2.01 5.99 1.02 6.98 0 8 C0 5.36 0 2.72 0 0 Z " fill="#C1C1C1" transform="translate(738,699)"/>
<path d="M0 0 C3.96 0 7.92 0 12 0 C9 3 9 3 6.9921875 3.14453125 C4.98323763 2.82947454 2.99022526 2.4173053 1 2 C0.67 1.34 0.34 0.68 0 0 Z " fill="#DFDFDF" transform="translate(575,700)"/>
<path d="M0 0 C0.66 0.66 1.32 1.32 2 2 C2.66 1.34 3.32 0.68 4 0 C5.0326802 2.78823655 5.04509293 3.8677274 4.0625 6.75 C3.711875 7.4925 3.36125 8.235 3 9 C2.34 8.01 1.68 7.02 1 6 C1.33 5.34 1.66 4.68 2 4 C1.01 4.33 0.02 4.66 -1 5 C-0.67 3.35 -0.34 1.7 0 0 Z " fill="#CBCBCB" transform="translate(395,689)"/>
<path d="M0 0 C5.75 1.75 5.75 1.75 8 4 C7 5 7 5 4.4375 5.0625 C3.2309375 5.0315625 3.2309375 5.0315625 2 5 C1.34 3.35 0.68 1.7 0 0 Z " fill="#1C1C1C" transform="translate(472,682)"/>
<path d="M0 0 C0.66 0.99 1.32 1.98 2 3 C1.2884375 3.61875 1.2884375 3.61875 0.5625 4.25 C-1.16266518 6.182185 -1.56584875 7.48192275 -2 10 C-3.65 10 -5.3 10 -7 10 C-6.67 9.34 -6.34 8.68 -6 8 C-5.34 8 -4.68 8 -4 8 C-3.71125 7.4225 -3.4225 6.845 -3.125 6.25 C-2.08333333 4.16666667 -1.04166667 2.08333333 0 0 Z " fill="#2E2E2E" transform="translate(673,606)"/>
<path d="M0 0 C0.66 0 1.32 0 2 0 C2 0.66 2 1.32 2 2 C2.99 2 3.98 2 5 2 C5 2.99 5 3.98 5 5 C5.66 5.33 6.32 5.66 7 6 C5.02 6.33 3.04 6.66 1 7 C1.33 6.34 1.66 5.68 2 5 C1.01 4.01 0.02 3.02 -1 2 C-0.67 1.34 -0.34 0.68 0 0 Z " fill="#BCBCBC" transform="translate(473,391)"/>
<path d="M0 0 C0.99 0.33 1.98 0.66 3 1 C2.2884375 2.0828125 2.2884375 2.0828125 1.5625 3.1875 C0.05847097 5.89475226 -0.56599182 7.96194275 -1 11 C-1.33 11 -1.66 11 -2 11 C-2.05399736 9.54207116 -2.09279177 8.08357288 -2.125 6.625 C-2.15980469 5.40683594 -2.15980469 5.40683594 -2.1953125 4.1640625 C-2 2 -2 2 0 0 Z " fill="#191919" transform="translate(414,772)"/>
<path d="M0 0 C0.99 0 1.98 0 3 0 C2.37240135 2.92879371 1.41377341 5.36095629 0 8 C-0.66 7.67 -1.32 7.34 -2 7 C-1.125 1.125 -1.125 1.125 0 0 Z " fill="#161616" transform="translate(787,690)"/>
<path d="M0 0 C0.33 0 0.66 0 1 0 C1.33 2.97 1.66 5.94 2 9 C0.02 9.99 0.02 9.99 -2 11 C-2 6.91621923 -1.19287411 3.87684087 0 0 Z " fill="#CBCBCB" transform="translate(684,605)"/>
<path d="M0 0 C2.875 -0.125 2.875 -0.125 6 0 C6.66 0.66 7.32 1.32 8 2 C7.01 2 6.02 2 5 2 C5 2.66 5 3.32 5 4 C3.35 4 1.7 4 0 4 C0 2.68 0 1.36 0 0 Z " fill="#D3D3D3" transform="translate(424,775)"/>
<path d="M0 0 C1.33333333 0 2.66666667 0 4 0 C4 1.98 4 3.96 4 6 C2.35 5.67 0.7 5.34 -1 5 C-0.67 3.35 -0.34 1.7 0 0 Z " fill="#C9C9C9" transform="translate(397,722)"/>
<path d="M0 0 C0.66 0 1.32 0 2 0 C2 0.99 2 1.98 2 3 C1.34 3 0.68 3 0 3 C0.33 5.31 0.66 7.62 1 10 C-0.32 8.68 -1.64 7.36 -3 6 C-2 4 -1 2 0 0 Z " fill="#0C0C0C" transform="translate(698,711)"/>
<path d="M0 0 C1.33332095 2.6666419 0.67102033 4.16680303 0 7 C-0.66 7 -1.32 7 -2 7 C-2 9.97 -2 12.94 -2 16 C-2.33 16 -2.66 16 -3 16 C-3.32712342 9.86946489 -3.39366878 5.37330889 0 0 Z " fill="#929292" transform="translate(549,698)"/>
<path d="M0 0 C0.33 0 0.66 0 1 0 C1 2.97 1 5.94 1 9 C2.65 9.33 4.3 9.66 6 10 C5.67 10.66 5.34 11.32 5 12 C1.125 11.125 1.125 11.125 0 10 C-0.07205511 8.31391034 -0.08386068 6.62499341 -0.0625 4.9375 C-0.05347656 4.01839844 -0.04445313 3.09929687 -0.03515625 2.15234375 C-0.02355469 1.44207031 -0.01195312 0.73179687 0 0 Z " fill="#C2C2C2" transform="translate(446,412)"/>
<path d="M0 0 C-0.99 0.495 -0.99 0.495 -2 1 C-2.33 1.66 -2.66 2.32 -3 3 C-3.33 2.67 -3.66 2.34 -4 2 C-5.68183948 1.76712992 -7.3712416 1.58735834 -9.0625 1.4375 C-10.44115234 1.31181641 -10.44115234 1.31181641 -11.84765625 1.18359375 C-12.91306641 1.09271484 -12.91306641 1.09271484 -14 1 C-14 0.67 -14 0.34 -14 0 C-8.97874074 -0.77916092 -5.02296004 -1.13016601 0 0 Z " fill="#B4B4B4" transform="translate(791,770)"/>
<path d="M0 0 C-0.33 0.99 -0.66 1.98 -1 3 C-7.93 2.505 -7.93 2.505 -15 2 C-15 1.67 -15 1.34 -15 1 C-13.25021843 0.83105557 -11.50016388 0.66493691 -9.75 0.5 C-8.77546875 0.4071875 -7.8009375 0.314375 -6.796875 0.21875 C-4.53697847 0.04199832 -2.26679807 0 0 0 Z " fill="#8E8E8E" transform="translate(639,737)"/>
<path d="M0 0 C2.03833424 1.2739589 4.03852126 2.61061923 6 4 C6 4.66 6 5.32 6 6 C3.69 5.67 1.38 5.34 -1 5 C-0.67 3.35 -0.34 1.7 0 0 Z " fill="#BEBEBE" transform="translate(538,728)"/>
<path d="M0 0 C2.31 0.66 4.62 1.32 7 2 C6.34 3.32 5.68 4.64 5 6 C2.525 5.01 2.525 5.01 0 4 C0 2.68 0 1.36 0 0 Z " fill="#1D1D1D" transform="translate(443,728)"/>
<path d="M0 0 C0.33 0.99 0.66 1.98 1 3 C1.66 3 2.32 3 3 3 C3.33 3.99 3.66 4.98 4 6 C2.68 6 1.36 6 0 6 C-0.66 4.68 -1.32 3.36 -2 2 C-1.34 1.34 -0.68 0.68 0 0 Z " fill="#CDCDCD" transform="translate(453,717)"/>
<path d="M0 0 C0.99 0.33 1.98 0.66 3 1 C2.5359375 2.2684375 2.5359375 2.2684375 2.0625 3.5625 C0.98461179 7.0497854 0.43418696 10.38177535 0 14 C-0.33 14 -0.66 14 -1 14 C-1.18451025 4.58997722 -1.18451025 4.58997722 0 0 Z " fill="#C0C0C0" transform="translate(501,392)"/>
<path d="M0 0 C0.99 0 1.98 0 3 0 C3 0.99 3 1.98 3 3 C-0.81756824 4.37432457 -4.07255329 3.67975039 -8 3 C-8 2.67 -8 2.34 -8 2 C-6.865625 1.855625 -5.73125 1.71125 -4.5625 1.5625 C-1.19222799 1.38828522 -1.19222799 1.38828522 0 0 Z " fill="#5C5C5C" transform="translate(762,784)"/>
<path d="M0 0 C1.98 1.65 3.96 3.3 6 5 C5.01 5.66 4.02 6.32 3 7 C1.68 6.01 0.36 5.02 -1 4 C-0.67 2.68 -0.34 1.36 0 0 Z " fill="#CBCBCB" transform="translate(605,728)"/>
<path d="M0 0 C2.6855594 2.6855594 3.06049974 5.37621328 4 9 C3.34 9 2.68 9 2 9 C2 8.01 2 7.02 2 6 C1.01 6.33 0.02 6.66 -1 7 C-0.67 4.69 -0.34 2.38 0 0 Z " fill="#ABABAB" transform="translate(435,606)"/>
<path d="M0 0 C1.65 0.99 3.3 1.98 5 3 C4.67 4.32 4.34 5.64 4 7 C3.34 7 2.68 7 2 7 C1.34 4.69 0.68 2.38 0 0 Z " fill="#131313" transform="translate(364,782)"/>
<path d="M0 0 C0 1.32 0 2.64 0 4 C-0.66 3.67 -1.32 3.34 -2 3 C-1.67 2.34 -1.34 1.68 -1 1 C-1.99 1 -2.98 1 -4 1 C-4 1.66 -4 2.32 -4 3 C-4.66 3 -5.32 3 -6 3 C-6 2.34 -6 1.68 -6 1 C-6.66 0.67 -7.32 0.34 -8 0 C-5.13822943 -1.43088528 -3.06624227 -0.59991697 0 0 Z " fill="#ADADAD" transform="translate(489,783)"/>
<path d="M0 0 C1.65 0 3.3 0 5 0 C4.67 0.66 4.34 1.32 4 2 C4 2.99 4 3.98 4 5 C2.68 5 1.36 5 0 5 C0 3.35 0 1.7 0 0 Z " fill="#E7E9E8" transform="translate(599,774)"/>
<path d="M0 0 C1.65 0 3.3 0 5 0 C4.01 0.33 3.02 0.66 2 1 C1.87625 1.804375 1.7525 2.60875 1.625 3.4375 C1.41875 4.283125 1.2125 5.12875 1 6 C0.01 6.495 0.01 6.495 -1 7 C-0.67 4.69 -0.34 2.38 0 0 Z " fill="#252525" transform="translate(777,684)"/>
<path d="M0 0 C2.97 0 5.94 0 9 0 C8.01 0.33 7.02 0.66 6 1 C6 1.66 6 2.32 6 3 C4.35 3 2.7 3 1 3 C0.67 2.01 0.34 1.02 0 0 Z " fill="#020202" transform="translate(783,683)"/>
<path d="M0 0 C0.33 0 0.66 0 1 0 C1 1.65 1 3.3 1 5 C-0.75 5.6875 -0.75 5.6875 -3 6 C-5.25 4.5625 -5.25 4.5625 -7 3 C-3.535 2.505 -3.535 2.505 0 2 C0 1.34 0 0.68 0 0 Z " fill="#C3C3C3" transform="translate(483,406)"/>
<path d="M0 0 C1.98 1.65 3.96 3.3 6 5 C5.01 5.33 4.02 5.66 3 6 C2.01 5.34 1.02 4.68 0 4 C0 2.68 0 1.36 0 0 Z " fill="#C9C9C9" transform="translate(747,783)"/>
<path d="M0 0 C0.33 0.66 0.66 1.32 1 2 C1.66 2 2.32 2 3 2 C2.67 3.98 2.34 5.96 2 8 C0.4375 6.25 0.4375 6.25 -1 4 C-0.6875 1.75 -0.6875 1.75 0 0 Z " fill="#CFCFCF" transform="translate(385,781)"/>
<path d="M0 0 C0.66 0.33 1.32 0.66 2 1 C1.2884375 1.804375 1.2884375 1.804375 0.5625 2.625 C-1.28186076 5.42842836 -1.62456847 7.69620258 -2 11 C-2.33 11 -2.66 11 -3 11 C-3.36923077 3.49230769 -3.36923077 3.49230769 -1.5 1 C-1.005 0.67 -0.51 0.34 0 0 Z " fill="#959595" transform="translate(661,773)"/>
<path d="M0 0 C0.66 0 1.32 0 2 0 C0.14285714 7.57142857 0.14285714 7.57142857 -3 10 C-2.39009109 6.44219804 -1.4216319 3.3171411 0 0 Z " fill="#E3E3E3" transform="translate(589,720)"/>
<path d="M0 0 C0.66 0 1.32 0 2 0 C1.75 2.875 1.75 2.875 1 6 C-1.0625 7.375 -1.0625 7.375 -3 8 C-1.125 2.25 -1.125 2.25 0 0 Z " fill="#B1B1B1" transform="translate(403,709)"/>
</svg>
